<?xml version="1.0" encoding="utf-8"?>
<!-- Generator: Adobe Illustrator 21.0.0, SVG Export Plug-In . SVG Version: 6.00 Build 0)  -->
<svg version="1.1" xmlns="http://www.w3.org/2000/svg" xmlns:xlink="http://www.w3.org/1999/xlink" x="0px" y="0px"
	 viewBox="0 0 1024 132" enable-background="new 0 0 1024 132" xml:space="preserve">
<g id="Fourmis">
	<path fill="#464646" d="M238,49v14h36v13h-36v36h-15V48.7c0-18.3,11.7-30,29.7-30c10.1,0,20.8,2.4,27.9,5.8L277,38.4
		c-6.8-3.3-15.9-5.7-22.9-5.7C244.4,32.7,238,39.2,238,49z"/>
	<path fill="#464646" d="M473,20v92h-16V97c-6.8,9.2-17.9,14.9-31.6,15c-18.9,0-32.4-13.7-32.4-33.6V20h16v54.9
		c0,13.3,9,22.5,22,22.5c15.2-0.3,26-12.4,26-27.7V20H473z"/>
	<path fill="#464646" d="M550.3,113l-17-28.1c-1.3,0.1-2.8,0.1-4.2,0.1h-22v28h-16V20h38.5c24.3,0,38.2,11.6,38.2,31.8
		c0,14.9-7.1,25.4-19.7,30.2l21.3,31.1H550.3z M528.2,71c14.4,0,22.7-6.1,22.7-18.8c0-12.3-8.3-18.2-22.7-18.2H506v37H528.2z"/>
	<path fill="#80438B" d="M717,53.6V112h-16V57.1c0-13.2-8.1-22.5-20.1-22.5C667,34.9,657,47,657,62.3V112h-15V57.1
		c0-13.2-8.3-22.5-20.2-22.5C607.9,34.9,598,47,598,62.3V112h-16V20h15v14.6c6.3-8.9,16.7-14.5,29.5-14.6c13,0,23.4,7.4,27.9,19.2
		c5.9-11.8,17.3-19.1,32.1-19.2C704.2,20,717,33.7,717,53.6z"/>
	<path fill="#80438B" d="M762,34v64h17v14h-50V98h17V34h-17V20h50v14H762z"/>
	<path fill="#80438B" d="M825.1,33.8c-9.1,0-15.1,3.4-15.1,9.6c0,20.2,49.9,9.4,49.8,42.7c0,16.5-14.5,26.7-34.9,26.7
		c-14.5,0-28.3-5.9-37.8-14.7l6.7-13.5c9.5,8.7,21.4,13.5,31.3,13.5c10.8,0,17.3-4.1,17.3-11.2c0-20.6-49.9-9.1-49.9-42
		c0-15.8,13.6-25.8,33.7-25.8c12,0,23.8,3.8,32.4,9.5l-6.5,13.7C842.1,36.3,832.1,33.8,825.1,33.8z"/>
	<path fill="#80438B" d="M332.9,19.4c-27.6,0-49,20.1-49,46.6c0,15.1,7,28.2,18.1,36.7l-12.5,21.7l12.2,7.1l12.6-21.9
		c5.7,2.1,11.9,3.3,18.5,3.3c27.6,0,49-20.5,49-46.9C381.9,39.6,360.5,19.4,332.9,19.4z M333.1,98.9c-18.1,0-33.3-14.5-33.3-32.9
		s15.1-32.6,33.3-32.6c18.1,0,32.9,14.3,32.9,32.6S351.2,98.9,333.1,98.9z"/>
	<polygon fill="#464646" points="72,40.8 0,112.8 0,90.8 72,18.8 	"/>
	<polygon fill="#80438B" points="113,40.8 41,112.8 41,90.8 113,18.8 	"/>
	<polygon fill="#464646" fill-opacity="0.5" points="153,40.8 81,112.8 81,90.8 153,18.8 	"/>
	<polygon fill="#80438B" fill-opacity="0.5" points="194,40.8 122,112.8 122,90.8 194,18.8 	"/>
</g>
<g id="Borders">
</g>
<g id="Layer_4">
	<path fill="#A2BB30" d="M969.2,19.5c0.1,0,0.1,0,0.2,0c1.5,0.5,3.1,0.1,4.6,0.2c1,0.1,2-0.3,2.8,0.5c0.2,0.2,0.6,0,0.8-0.1
		c2-1.1,4.1-1.4,6.3-1.2c1.6,0.9,3.6,0.5,5.3,1.5c0.9,0.6,1.8,1.1,3.1,0.9c0.8-0.2,0.6,0.9,1.1,1.2c4.4,2.7,7.4,6.8,10.8,10.5
		c0.2,0.2,0.4,0.5,0.6,0.7c1.3,0.6,1.4,1.4,0.8,2.6c-0.2,0.3-0.1,0.7,0,1c0.9,2.3,1.6,4.7,3.2,6.6c0.5,0.6,0.5,1.1,0,1.6
		c-0.7,0.7-0.7,1.4-0.4,2.2c0.5,1.9,1,3.9,2,5.6c0.1,0.3,0.5,0.6-0.1,1c-0.9,0.6-0.8,1.5-0.4,2.4c0.3,0.8,0.6,1.7,0.7,2.6
		c-0.7,0.9-2,0.4-2.8,1c-4.3,0.9-8.2,2.9-11.9,5.3c-0.4,0.2-0.7,0.5-1.2,0.4c-0.7-0.6-1.5-0.1-2,0.1c-1.2,0.5-1.9,0-2.5-0.9
		c-0.5-0.7-1-1.1-2-1.1c-0.9,0-1.7-0.8-2.8-0.8c-0.5,0-0.3-0.7-0.6-1c-0.5,0.4-0.5,1.5-1.6,1.3c-1-0.2-1.4-1-1.6-1.9
		c-0.2-0.8,0-1.6-1.4-1.5c-0.4,0.1-0.6-1.1-1.2-1.6c-0.3-0.2-0.3-0.9-0.9-0.8c-0.5,0.1-0.4,0.6-0.5,1c-0.2,0.7-0.6,0.5-0.9,0.1
		c-0.4-0.5-0.6-1.1-1.5-1.1c-0.5,0-0.3-0.8-0.3-1.2c0-0.4,0.1-0.8,0.5-0.9c0.4-0.1,0.8,0,0.9-0.6c-0.1,0.1,0.1-0.1,0.1-0.1
		c-0.7,0.8-1.3,1.2-1.4-0.3c0-0.7-0.2-1.6,0.3-2.3c0.1-0.2,0.2-0.5,0-0.7c-1-1.1-1.4-2.6-2.3-3.8c-0.3-0.4-0.4-0.7,0.1-1
		c0.1,0,0.2,0.1,0.2,0c-0.4-0.2-0.6-0.6-1-0.8c-0.3-0.2-0.5,0.2-0.7,0.4c-0.2,0.2-0.3,0.5-0.4,0.8c-0.6,1-1.1,1.1-2,0.5
		c-0.6-0.4-0.8-1.7-0.3-2.3c0.4-0.4,0.8-0.9,1.6-0.7c-0.3-0.3-0.5-0.6-0.4-0.9c0.3-1.3-0.5-2.6,0.1-3.9c0.3-0.6-0.4-1.1-0.4-1.7
		c0-0.7-0.3-1.1-1-1.2c-0.3,0-0.5-0.4-0.4-0.7c0.1-0.4,0.1-0.6-0.3-0.9c-0.5-0.4-0.3-0.8,0.2-1c0.5-0.3,0.8-0.8,1-1.3
		c0.2-0.4,0.1-0.9-0.3-1.1c-0.6-0.3-1.3-0.6-1.3-1.3c0-0.9-0.1-1.9,0.4-2.7c0.5-0.8,0.4-1.3-0.3-1.9c-0.7-0.5-1-1.3-0.9-2.1
		c0.2-1.1-0.5-2.3,0.5-3.3c1.1,0.3,1.4,1.4,2,2.2c0.2,0.2,0.4,0.3,0.6,0.5c0.6-1-0.3-1-0.8-1.2c-0.4-0.3-0.7-0.7-1-1.1
		c-0.4-0.5-0.7-1.1-0.3-1.6C968.1,19.1,968.7,19.4,969.2,19.5z"/>
	<path fill="#ADC335" d="M967.4,21c-0.1,2-1.3,4.1,1.2,5.6c0.5,0.3,0.3,1.3-0.3,1.8c-0.7,0.6,0.1,1.3-0.3,2
		c-0.6,0.9,0.4,1.2,1.1,1.6c1,0.4,0.8,2-0.3,2.9c-0.2,0.2-0.8-0.1-0.7,0.5c0.1,0.5,0.7,0.1,1,0.4c0.1,0.4-0.3,0.5-0.4,0.7
		c-0.2,0.4-0.1,0.8,0.4,0.6c0.7-0.4,0.8,0,0.8,0.4c0.1,1.2,1.4,2.4,0.3,3.7c-0.1,0.1-0.1,0.4,0,0.5c0.6,0.6,0.4,1.3,0.1,2
		c0.4,0.1-0.5,1.3,0.6,0.8c0,0.2,0.1,0.4,0,0.5c-0.1,0.2-0.2,0.5-0.7,0.4c-0.8-0.3-1.3,0.5-1.4,0.9c-0.2,0.7,0,1.5,1,1.8
		c0.3,0.1,0.5,0.1,0.6-0.2c0.1-0.4,0.4-0.7,0.6-1.1c0.4-1.1,1-1.1,1.7-0.3c0.2,0.3,0.3,0.3,1.2,0.4c-0.1,0.9-0.9,0.1-1.3,0.6
		c1.4,1.2,1.5,3.3,3,4.5c0.1,0.1,0.2,0.4,0,0.5c-1,0.6-0.4,1.5-0.5,2.3c-0.1,0.3-0.3,0.8,0.2,0.9c0.3,0.1,0.6-0.2,0.6-0.7
		c0-0.1,0.1-0.2,0.2-0.6c0.1,0.7,0.2,1.2,0.3,1.6c-1.6-0.1-1.6,0-1.5,1.5c0,0.4,0.2,0.7,0.5,0.4c0.8-0.9,0.8-0.3,0.9,0.4
		c0,0.5,0.4,0.7,0.8,1c0-0.4-0.1-0.7,0-1.1c0.1-0.3,0.2-0.6,0.7-0.7c0.4,0,0.7,0.1,0.9,0.5c0.2,0.5,0.3,1.1,1.1,1.2
		c0.6,0.1-0.3,0.7,0,1c1.3-0.6,1.4-0.5,1.6,1c0.1,0.4,0.3,0.9,0.4,1.3c0.1,0.6,0.7,1,1.4,1c0.6,0,0.7-0.6,0.8-1
		c0.1-0.4,0.2-0.7,0.6-0.5c0.4,0.1,0.6,0.3,0.4,0.7c-0.1,0.3,0,0.8,0.3,0.6c0.7-0.5,1,0.2,1.5,0.2c0.6,0,1.1,1.1,1.9,0.3
		c0.2-0.2,0.7,0.3,1,0.7c1.7,2.1,1.7,2.1,4.1,1c0.2-0.1,0.5-0.3,0.6-0.1c0.1,0.1-0.1,0.4-0.1,0.6c0,0.5-0.3,0.7-0.6,1
		c-0.7,0.8-1.8,1.2-2.6,1.9c-0.1,0-0.2,0-0.4-0.1c-0.8-0.4-1.5-0.8-2.4-0.5c-0.7,0.2-1.1-0.4-1.5-0.8c-0.7-0.5-1.2-0.7-2.1-0.2
		c-1.3,0.8-1.7,0.5-2.6-0.6c-1.5-1.9-3-3.7-5.5-4.4c-0.3-0.1-0.4-0.3-0.6-0.5c-1.8-1.9-3.6-3.8-5.6-5.5c-1-0.8-1.4-2-2.1-3
		c-0.3-0.4-0.8-0.8-1-1.3c-1.2-0.2-1.3-1.3-1.6-2.2c-0.7-2.3-1.3-4.6-1.9-6.9c-1.1-4.7-0.7-9.1,0.6-13.6c0.7-2.5,1.1-5,1.6-7.5
		c0.1-0.2,0.2-0.5,0.2-0.7C966.9,20.5,967,20.5,967.4,21z"/>
	<path fill="#221F1B" d="M961.2,79.5c-0.8,0-1.2,0.7-1.8,1c-0.3,0.6-0.8,1-1.5,1.2c-0.6,0.2-1,0.5-1.2,1.4c0.5-0.6,0.8-1,1.2-1.1
		c0.5-0.2,1-0.2,0.7,0.6c-0.1,0.3-0.7,0.7,0.2,0.7c0.4,0,0.7,0,1.1,0c0.2,0.2,0.5,0.1,0.7,0.3c0.6,1.4,0.4,2-0.8,2.7
		c-1.3,0.7-2.7,1.4-4,2.2c-1,0.6-2,0.6-3.1,0.4c-0.3-0.1-0.6-0.4-1-0.4c-0.6,0.2-0.9,0.7-1.3,1.1c-0.3,0.6-1,1-1.5,1.5
		c-0.9,0.8-1.8,1.6-2.6,2.4c-1.1,1-1.7,1.1-2.2-0.2c-0.6-1.4-1.6-1.1-2.6-1.2c-0.2,0-0.4,0-0.6-0.1c-0.2-0.1-0.3-0.2-0.4-0.3
		c-0.2-0.4-0.1-1-0.5-1.4c-0.1-0.1-0.2-0.2-0.3-0.1c-0.2,0.2,0,0.5,0,0.7c0,0.1,0,0.1,0,0.2c0,0.1-0.1,0.2-0.1,0.3
		c-0.8,0.2-1.4,0.5-1.9,1.3c-0.7,1.3-1.6,0.2-2.4,0c-0.2-0.1-0.3-0.4-0.2-0.6c0.2-0.3,0.4-0.4,0.7-0.3c0.9,0.2,1.3-0.3,1.8-1
		c-0.5-0.3-1-0.1-1.5-0.3c-0.4-0.2-0.7,0.3-1.1,0.3c-0.6,0-1.1,0-0.8-0.8c0.3-0.9-0.3-0.8-0.8-0.6c-0.7,0.2-1.3,0.7-2,0.6
		c-0.2-0.2-0.1,0.2-0.1,0.1c0-0.1,0-0.1,0.1,0c1,0.7,0.9,1.6-0.3,2.1c-1.2,0.5-2.4,0.3-3.5-0.1c-2.3-0.6-4.6-1.2-7-0.7
		c-1.4,0.3-2.8,0.3-4.1-0.5c-0.8-0.4-1.8-0.6-2.7-0.7c-1-0.1-1.8-0.6-2.7-0.9c-0.3-0.1-0.5-0.4-0.6-0.8c-0.5-2.6,0.7-4.6,3.2-5.4
		c1.1-0.3,2.1-0.8,3-1.7c0.9-0.9,1.9-1.2,3-0.6c0.5,0.3,1,0.2,1.4-0.3c1.3-1.6,3.1-2,5.1-1.7c0.2,0.1,0.6,0.3,0.7,0.2
		c2-1.2,4-0.1,6.1,0.1c1,1,2.2,1.7,3.3,2.5c0.5,0.2,0.2-0.4,0.4-0.5c0.8-0.4,1.2-0.3,1.2,0.7c0,0.4,0.2,0.7,0.5,0.9
		c-0.2,0.9-1.1,1.2-2.1,0.8c-0.5-0.2-0.8-0.6-1.4-0.8c-0.2,0.4,0.3,1-0.4,1.2c-1.3,0-2.7,0.1-3.9-0.4c-0.2-0.1-0.4-0.1-0.6-0.1
		c-2,0.7-4,0.3-6,0.4c-1.6,0.1-3.2,0.1-4.7,0.6c-0.5,0.2-1.1,0.1-1.7,0.1c-0.4,0-0.9,0-1.3,0.2c-0.4,0.2-0.9,0.5-0.9,1
		c0.1,0.5,0.7,0.5,1.1,0.5c1.8,0.1,3.7,0.2,5.4,1c0.6,0.3,1.3-0.2,1.9-0.1c2.6,0.6,4.9-0.5,7.4-0.9c0.4-0.1,0.8-0.2,1.3,0
		c0.2,1,0.8,1.3,1.8,1c0.9-0.3,1.7,0.2,2.1,1.1c0.2,0.4,0.4,0.9,1,0.9c0.7,0,1.3,0.2,1.2-0.9c-0.1-1.1,0.4-1.6,1.5-1.5
		c1,0.1,2,0,2.7-0.8c0.3-0.3,0.7-0.3,1.1-0.2c1.1,0.4,1.8-0.1,2.4-0.9c0.5-0.6,0.8-1.2,1.1-1.9c0.2-0.3,0.4-0.7,0.7-0.9
		c0.5-0.4,1.1-0.5,1.6,0c0.5,0.5,0.4,1,0,1.5c-0.5,0.6-1,1.2-1.3,1.9c-0.1,0.2-0.4,0.5,0,0.7c1.3,0.6,0.6,1.2,0.1,1.9
		c-1,0.5-2.2-0.3-3.1,0.4c-0.6,0.1-1.1,0.2-0.9,1.1c0.2,0.7-0.1,1.4,0.1,2.1c0.7,0.9,1.3,0.3,2-0.1c2.3-1.7,4.1-3.8,6.1-5.7
		c0.2-0.2,0.4-0.5,0.7-0.6c1.6-0.5,2-1.7,2.2-3.1c0.1-1,0.7-1.8,1.9-2c0.8-0.1,1.8-0.2,1.1-1.5c-0.1-0.2,0.1-0.5,0.3-0.7
		c0.6-0.1,0.9,0.8,1.5,0.6C960.7,78.7,961.3,78.8,961.2,79.5z"/>
	<path fill="#A3BA33" d="M1011.1,60.9c0.9,1.9,0.7,3.9,0.9,5.9c0.1,1,0.7,1.9,1,2.9c0.4,1.3-0.2,2.4-0.7,3.5c-0.2,0.4-0.6,0.7-1,0.7
		c-0.6,0-1.2,0.4-1.8,0.5c-1.8-0.9-3.5-2.1-5.4-2.8c-1.1-0.3-2.2-0.7-3.2-1.1c-0.3-0.1-0.7-0.1-0.9,0c-1,1.2-1.7,0.1-2.4-0.3
		c-1.1-0.7-2.2-1.3-3.5-0.4c-0.2,0.2-1-0.4-1.5-1c0-0.9,0.8-1.2,1.3-1.8c2.5-1.5,4.9-3.3,7.7-4.3c2.4-0.9,4.8-1.8,7.3-2.1
		C1009.6,60.8,1010.4,60.2,1011.1,60.9z"/>
	<path fill="#181715" d="M958.9,78c0.1,0.4-0.4,0.8,0,1.1c1.5,1.1,0,1.2-0.5,1.2c-1.8,0.2-2.5,1.1-2.6,2.9c-0.1,1-0.6,2-1.9,2.3
		c-0.9,0.2-1.4,1-1.9,1.6c-1.6,1.9-3.7,3.4-5.5,5.1c-0.8,0.7-1.5,0.5-2.2-0.2c0.3-0.3,0.6-0.4,0.8-0.8c0.5-0.7,1.2-1.1,1.9-1.5
		c0.7-0.3,0.8-1.1,1.4-1.6c0.1-0.3,0.3-0.5,0.4-0.8c0.4-0.6,0.2-0.8-0.5-0.6c-1,0.2-0.7-0.4-0.4-0.7c0.5-0.7,0.8-1.6,1.5-2.2
		c0.4-0.3,0.7-0.8,0.2-1.3c-0.6-0.5-1.2-0.3-1.5,0.3c-0.5,0.8-0.8,1.6-1.3,2.3c-0.8,1-1.5,2.1-3.1,1.1c-0.4-0.3-0.6,0.1-0.9,0.4
		c-0.6,0.7-1.4,0.9-2.3,0.7c-1.4-0.2-1.9,0.2-1.6,1.6c0.2,0.9,0.1,0.9-0.8,0.8c-1-0.1-1.8,0-2-1.3c-0.1-0.7-0.9-1-1.7-0.8
		c-0.7,0.2-1.3,0.2-2,0.2c-0.2-0.5,0.3-0.8,0.3-1.3c0-0.4,0.1-0.7,0.4-0.8c0.8-0.5,1.2-1.2,1.6-2c0.1-0.5-0.4-0.9-0.3-1.5
		c0.7-0.1,1.1,0.5,1.6,0.8c0.8,0.5,1.7,0.7,2.4-0.2c0-0.2,0.1-0.3,0.2-0.4c0.8-1,1.8-1.7,2.8-2.3c0.7-0.1,1,0.3,1.2,0.9
		c0.6,1.5,0.7,1.6,2.1,0.8c0.2-0.1,0.4-0.3,0.6-0.5c0.1-0.1,0.2-0.2,0.3-0.2c1.2-1.9,3-2.1,4.9-1.6c1,0.3,2,0,2.9-0.2
		c0.8,0.5,1.5,0.6,2.1-0.2c0.5-0.5,0.5-1.1,0.5-1.7c0.1-1,0.6-1.4,1.6-1.2C958.6,76.3,959.1,76.9,958.9,78z"/>
	<path fill="#E7E5F1" d="M911,111.9c0-0.7-0.3-0.9-1-1c-2.2-0.2-4.2-0.9-6.3-1.5c-1.7-0.6-3.3-3-3.3-4.8c0-1.1-0.2-2.2,0.4-3.3
		c0.5-1,1.1-1.7,2-2.2c1-0.6,2.2-1.1,2.7-2.4c0.3-0.7,1.4-0.8,2.2-1c2-0.4,3.9-0.8,5.8-1.3c0.7-0.2,1.4-0.5,1.9-1
		c1.1-0.6,2.3-0.2,3.4,0c3.4,0.7,6.7,0.7,10-0.2c1.6-0.2,2.8-1.1,4.2-1.9c0.8-0.4,1.6-0.9,2.5-0.3c0.4,0.6-0.3,0.8-0.4,1.2
		c-0.2,1.8-1.7,2.4-3,2.9c-1.2,0.4-2.5,0.7-3.8,1.1c-0.3,0.1-0.5,0.1-0.8,0c-1.1-0.1-2.3-0.7-3.2-0.5c-1.5,0.2-3.1,0.1-4.6,0.5
		c-2.3,0.6-4.6,1.2-6.9,2.1c-0.6,0.2-1.2,0.4-1.9,0.5c-0.2,0,0,0-0.1,0c-2,0.9-3.9,2.1-5.3,3.7c-1.6,1.9-0.6,4,1.8,4.4
		c1.5,0.3,2.7,1.1,4.3,1.2c0.7,0,1.2,0.8,1.1,1.6c-0.1,0.7-0.5,1.2-0.9,1.8C911.6,111.9,911.4,112.2,911,111.9z"/>
	<path fill="#B7B2BA" d="M951.7,113.4c-0.4-0.2-0.3-0.6-0.3-0.9c-0.5-2.9-0.1-5.9-0.2-8.8c-0.4-0.3-0.3-0.8-0.5-1.2
		c-1.3-1.4-3-1.1-4.6-0.9c-5,0.7-10.1,1.2-14.9,3.2c-1.9,0.8-4,1-6,1.3c-2.7,0.5-5.7,0.3-8.2,1.9c-0.2,0.1-0.5,0.2-0.7,0.1
		c-0.6-0.5,0-0.8,0.3-1.1c0.6-0.6,1.6-0.8,2.1-1.6c0.3-0.4,0.8-0.7,1.3-0.8c2.8-0.9,5.8-1.2,8.7-1.5c1.1-0.1,2-0.7,2.9-1.2
		c0.3-0.2,0.6-0.4,0.5-0.8c-0.1-0.3-0.4-0.4-0.7-0.5c-1.2-0.2-2.4-0.5-3.7-0.7c-0.7-0.1-1.4-0.3-1.3-1.3c0.2-0.6,0.6-0.9,1.2-1
		c0.8,0,1.6-0.3,2.4-0.1c1.6,0.4,3.2-0.1,4.7-0.2c3-0.3,5.9-1.2,8.5-2.6c0.8-0.4,1.5,0,2.2-0.1c-0.2-0.1-0.7,0.2-0.8-0.3
		c0.8-0.2,1.4-0.8,2.2-1c1,0.5,2.1,0.2,3.1,0c0.3-0.1,0.6-0.3,1-0.1c0.1,0.1,0.2,0.2,0.2,0.3c0.2,0.9,0.2,1.9,0.1,2.8
		c-0.1,1.1-0.1,2.2,0,3.3c0,0.3,0,0.6,0,0.9c1.1,2.1,0.8,4.3,0.5,6.5c-0.1,0.9,0,1.8-0.1,2.7C951.8,111,952.4,112.2,951.7,113.4z"/>
	<path fill="#E7E5F2" d="M951.1,102.2c0,0.5,0,1,0,1.5c-0.6,0.7,0.4,2.4-1.5,2.3c-1.1-0.1-2.1,0.2-3.2,0.3c-2.5,0.3-4.9,0.2-7.4,0
		c-2.2-0.2-4.1,0.6-6.1,1.3c-2.6,1-5.1,2.4-8,2.7c-0.1,0-0.3,0.1-0.4,0.1c-2.9-0.8-5.6,0.9-8.5,0.5c-1.1-0.1-2.1,0.2-3.2,0.3
		c-0.4-0.8,0.3-1,0.7-1.4c0.6-0.6,1.4-0.8,2.2-0.8c0.6,0,1.2,0.1,1.8-0.1c2.4-0.9,4.9-1,7.4-1.3c2.7-0.3,5.2-1.2,7.6-2.2
		c2.8-1.2,5.8-1.6,8.8-1.7c2.8-0.1,5.4-0.8,8.2-0.8C950.4,102.8,950.6,102.1,951.1,102.2z"/>
	<path fill="#332E2B" d="M955.5,72.5c0.9-1.4,1.8-2.7,3.5-3.1c2.3-0.6,4.5-1.2,6.9-0.4c1.4,0.5,3,0,4.2,0.8c1.4,0.9,2.8,1.7,3.5,3.3
		c0.3,0.5,0.6,0.9,1.1,1.2c0.3,0.4,0.8,0.7,0.8,1.3c0.4,1.1-0.6,1.5-1.2,1.7c-0.9,0.3-1.2-0.5-1.5-1.3c-0.1,0.7,0.1,1.4-0.2,2
		c-0.7,0.7-1.5,1.4-2.6,1.2c-0.2,0-0.4,0-0.5,0.1c-1,1.1-2.5,1.2-3.5,2.2c-0.7,0.6-1.5,1.2-2.6,1.2c-0.6-0.2-0.9-0.6-1.2-1.1
		c0-0.7,0.3-1,1.1-0.8c0.7,0.2,1.3-0.2,1.9-0.5c1.6-0.7,3-2,4.8-2.3c0.4-0.1,0.5-0.3,0.3-0.6c-0.4-0.5-0.4-1.2-0.9-1.8
		c-0.7,0.6-1,1.5-1.7,2c-0.5,0.3-0.9,0.9-1.5,0.4c0.5-1.1,1.4-2,1.8-3.2c0.1-0.3,0.3-0.5,0.4-0.8c0.5-1.4,0.3-1.8-1.2-1.8
		c-1.3,0-2.5,0.3-3.7,0.8c-0.7-0.5-1-1.1-0.6-1.9c0.4-0.9,0.2-1.3-0.8-1.1c-1.4,0.2-2.7,0.8-3.9,1.4c0,0.1-0.7,0.2-0.1,0.4
		c1,0.3,1.9,0.6,2.8,1c0.2,0.1,0.3,0.3,0.4,0.4c0.3,0.7,0.5,1.4-0.6,1.5c-0.7-0.1-1.1-0.8-1.7-1.1c-0.7-0.5-1.5-0.8-2.4-0.5
		c-0.3,0.1-0.7,0.1-1-0.1C955.4,72.8,955.4,72.6,955.5,72.5z"/>
	<path fill="#312D2A" d="M955.6,72.8c1-0.1,1.9-0.5,2.9,0c0.3,0.1,0.4,0.2,0.4,0.5c-0.3,0.4-0.8,0.3-1.2,0.3c-0.8,0.1-0.8,0.5-0.4,1
		c0.4,0.5,0.9,0.6,1.4,0.8c1.2,0.4,1.8,1.9,1.4,3.2c-0.8,0.4-1-0.3-1.3-0.8c0-0.9-0.5-1.4-1.4-1.5c-0.8-0.1-1.4,0.1-1.2,1
		c0.1,0.8-0.2,1.5-0.8,2c-0.3-0.2-0.2-0.5-0.1-0.8c0.2-0.6-0.1-0.9-0.7-0.9c-0.6,0-1.3-0.3-1.7,0.2c-0.4,0.5,0.5,0.7,0.6,1.1
		c0,0.1,0,0.2-0.1,0.3c-0.2,0-0.6-0.1-0.6,0c-0.7,1.2-1.6,0.3-2.3,0.2c-1.8-0.3-3.5-0.7-4.6,1.4c-0.1,0.1-0.3,0.1-0.5,0.1
		c-0.5-0.5-1.1-0.5-1.7-0.2c0.6,0.7,1.2-0.3,1.7,0.2c-0.4,0.9-1.4,0.9-2.1,1.2c-0.6,0.2-0.9-0.2-1-0.8c-0.1-0.7-0.2-1.4-1-1.7
		c2.8-0.2,4.7-2.4,7-3.6c0.4-0.5,1.2-0.1,1.6-0.6c-0.2,0,0.1-0.1,0-0.1c-0.9,0.3-1.3,0.3-0.7-0.7c0.2-0.4,0.4-0.8,0.8-0.9
		c0.5-0.3,1.2-0.3,1.6-0.7c0.2-0.2,0.6-0.3,0.8,0c0.3,0.5,0.6,0.6,1.2,0.3c0.7-0.3,0.6,0.8,1.2,1c0.2,0.2,0.4,0.6,0.7,0.8
		C955.2,74.5,955,73.6,955.6,72.8z"/>
	<path fill="#E9E6F0" d="M961.7,101.9c-0.9-0.3-1.5,0.2-1.9,0.8c-1.6,1.9-3.9,2-6.1,2.5c-0.7,0.1-0.8-0.6-1.2-1
		c-0.6-0.6-0.4-1.2-0.2-1.9c0.1-0.2,0.3-0.3,0.5-0.3c2,0.5,2.8-1.2,4-2.2c0.9-0.8,1.6-1.8,3.1-1.5c0.3,0.1,0.5-0.2,0.7-0.5
		c0.6-0.9,1.4-1.1,2.4-1.1c0.8,1.4,0.6,2.8-0.1,4.2C962.4,101.2,962.4,101.9,961.7,101.9z"/>
	<path fill="#242320" d="M957.8,71c1.2-0.6,2.4-1,3.7-1.4c0.6-0.2,1.2-0.2,1.7,0.1c0.3,0.2,0.7,0.4,0.3,0.8
		c-0.8,0.7-0.7,1.5-0.2,2.3c0.9,1.8,1.5,3.6,2.8,5.1c1.3-0.1,1.9-1.2,2.5-2.1c0.2-0.3,0.3-0.8,0.7-0.8c0.5,0,0.5,0.5,0.6,0.9
		c0.1,0.5,0.2,1,0.7,1.3c0.3,0.2,0.5,0.4,0.3,0.7c-0.1,0.3-0.6,0.4-0.8,0.3c-0.9-0.3-1.3,0.2-1.9,0.7c-1.1,0.9-2.8,1-3.8,2.2
		c-0.1,0.2-0.7,0-1.1-0.1c-0.6-0.2-0.8,0.1-1.1,0.5c-0.2-0.2-0.4-0.4-0.3-0.7c-0.3-0.8,0.4-1,0.9-1.2c0.4-0.2,0.8-0.1,1.1-0.2
		c1.2-0.2,1.3-0.6,0.6-1.5c-0.3-0.4-0.7-0.7-1-1c-0.2-0.2-0.4-0.3-0.7-0.1c-1.6,0.8-2,0.5-2.1-1.3c0.9-0.8,0.8-1.6,0.1-2.4
		c-0.1-0.1-0.2-0.2-0.3-0.3c-0.6-0.5-1.4-0.7-2.2-0.9C958,71.8,957.5,71.7,957.8,71z"/>
	<path fill="#181715" d="M960.9,75.4c0.1,0.3,0.2,0.7,0.3,1c0.1,0.4,0.2,0.8,0.7,0.8c0.4,0,0.6-0.3,0.7-0.6c0.3-0.6,0.6-0.6,1-0.2
		c0.4,0.4,0.8,0.7,1.1,1.2c0.3,0.5,1,0.9,0.6,1.5c-0.3,0.6-1,0.6-1.6,0.6c-0.8,0-1.7,0-1.9,1.1c-0.4-0.3-0.5-0.9-0.8-1.3
		c-0.2-0.5-0.6-0.6-1-0.8c0-0.5,0.1-1-0.4-1.3c-0.1-0.1-0.3-0.2-0.2-0.3c0.6-1.6-0.8-1.3-1.6-1.6c-0.8-0.3-1-1-1.4-1.6
		c-0.2-0.3,0.3-0.6,0.7-0.7c0.5-0.1,1.1,0,1.7,0c0.8,0,1,0.7,1.5,1C960.7,74.6,961.1,74.8,960.9,75.4z"/>
	<path fill="#473C3A" d="M913.8,77.1c-2.8,2.6-6.1,4.5-9.3,6.4c-0.3,0.3-0.7,0.6-1.1,0.2c0.3-0.6-0.8-1.1-0.2-1.7
		c3.1-2,6.1-3.9,9.2-5.9c0.3-0.2,0.8-0.3,1.1-0.5C914.4,75.8,914.4,76,913.8,77.1z"/>
	<path fill="#E8E3ED" d="M964.1,85.9c0.7,0.2,0.5,0.8,0.5,1.2c-0.5,2.7,0.7,4.4,2.8,5.8c1.1,0.7,1.3,1.9,0.7,3
		c-0.5,1-1.4,1.6-2.1,2.4c-0.5,0.5-0.9,0.3-1.3-0.2c-0.4,0.8,0.4,1.9-0.6,2.6c-0.6-0.9-0.3-2,0-2.8c0.8-2.3,0.1-4.5,0-6.7
		c-0.1-1.5-0.2-3-0.3-4.6C963.8,86.3,963.8,86.1,964.1,85.9z"/>
	<path fill="#332E2B" d="M989,70.5c-3.5,0.5-7.1,0.4-10.6,0.5c-1.6,0-3,0.4-4.1,1.6c-0.7,0-0.7-0.4-0.7-0.9c1-1.4,2.6-2,4.2-2.3
		c1.8-0.3,3.7-0.4,5.5-0.2c1.8,0.1,3.4-0.5,5.2-0.5c0.2,0,0.5,0.1,0.7,0.3c0.4,0.3,0.9,0.5,0.8,1C990.1,70.6,989.3,70.2,989,70.5z"
		/>
	<path fill="#947160" d="M903.2,82c0,0.2-0.3,0.5,0.1,0.5c1,0.2,0.5,0.6,0.2,1.1c-0.4,0.3-0.9,0.2-1.3,0.5c-2.5,1.4-4.9,3.2-7.2,5
		c-1,0.7-1.9,1.3-3.1,1.4c-1.5,0.2-2.8,0.8-4.4,0.8c-2.3,0.8-4.5,0-6.6-0.8c-0.3-0.1-0.6-0.3-0.3-0.7c0.6-0.3,1.2-0.2,1.7,0
		c2.6,1.1,5.2,0.7,7.8,0.2c4.4-0.7,6.9-4.3,10.5-6.2C901.7,83.4,902.1,82.3,903.2,82z"/>
	<path fill="#4A4342" d="M929,93.4c-3.2,1-6.5,1.1-9.8,0.4c-1.3-0.3-2.6-0.3-3.9-0.5c-1-0.6-2.2-0.6-3.1-1.4
		c-0.5-0.6-1.4-1.1-0.8-2.2c0.7-0.3,1.1,0.3,1.5,0.7c0.8,0.7,1.6,1.3,2.7,1.1c0.5-0.1,1,0.1,1.5,0.4c1.7,1,3.5,1.1,5.3,0.2
		c0.4-0.2,0.7-0.3,1.1-0.1c1.2,0.5,2.5,0.5,3.8,0.5C928,92.6,928.6,92.7,929,93.4z"/>
	<path fill="#4C4643" d="M973.8,71.8c0,0.4,0.2,0.7,0.6,0.8c-0.3,0.7,0.4,1.2,0.5,1.8c-0.8-0.2-1.1-0.7-1.6-1.4
		c-1.2-1.5-2.6-3.2-4.7-3.2c-1.9,0-3.7-1-5.6-0.8c-1.3,0.1-2.5,0.6-3.8,0.5c1.8-0.7,3.5-1.6,5.6-1c1.1,0.3,2.2,0.2,3.3,0.2
		c0.5,0,0.6-0.3,0.6-0.7c0.1-1.5-0.1-2.9-0.2-4.3c-0.3-0.9-0.1-2-0.5-2.9c0-0.2,0-0.3,0-0.5c0.3-0.5-0.3-1.5,0.6-1.5
		c0.7,0,0.4,1,0.6,1.5c0.3,0.9-0.1,1.9,0.5,2.7c0.4,1.6,0.1,3.3,0.3,5c0.1,0.7,0.3,1.1,0.8,1.5C971.8,70,972.8,70.9,973.8,71.8z"/>
	<path fill="#815136" d="M964.3,91.1c0.3,2.2,0.7,4.3,0.1,6.5c-0.3,1-0.3,2-0.4,3c-0.5,1.2-1.1,2.4-1.6,3.6
		c-0.3,0.2-0.3,0.7-0.8,0.5c-1-0.7,0.1-1.4,0.1-2.1c0.5-0.5,0.3-1.3,0.7-1.8c0.7-1.3,0.6-2.7,0.3-4.1c-0.5-0.4-1.1-0.7-1.2-1.4
		c0-0.1,0.1-0.2,0.1-0.4c0.3-0.3,0.3-0.9,0.9-1c1.4,0.6,1.7,1,1.6,2.6c0-1.3-0.4-2.7-0.2-4C964,92.1,963.8,91.5,964.3,91.1z"/>
	<path fill="#534A48" d="M919.1,75.2c1.4,0.8,2.8,1.6,4,2.8c0.5,0.5,1.3,0,2,0c0.8-0.2,1.6-0.4,2.3,0c0.4,1.1-0.3,1.1-1.1,1.1
		c-1.4-0.4-2.7,0-4.1,0.2c-0.9,0.2-1.7,0.3-2.6,0.7c-0.6,0.3-1.2,0.4-1.6-0.4c0.3-0.6,1-0.4,1.6-0.6c-0.5-1-1.4-1.7-2.3-2.4
		C917.5,75.4,917.6,75.4,919.1,75.2z"/>
	<path fill="#443A35" d="M918.1,79.5c0.5,0.3,1,0.4,1.6,0.1c0.8-0.5,1.7-0.6,2.7-0.7c0.2,0.7-0.3,0.8-0.8,1
		c-2.7,0.6-5.4,1.4-7.9,2.7c-1.3,0.6-2.6,1.5-3.4,2.9c-0.6,1,0,1.9-0.1,2.9c-1,0.5-1.2-0.5-1.6-1l0,0c-0.6-0.7-0.6-1.4,0-2.1
		c0.6-0.7,1-1.5,1.8-2c0.9,0,1.3-0.7,1.8-1.3C913.8,80.5,916,80.1,918.1,79.5z"/>
	<path fill="#B1C44C" d="M1009.5,74.4c0.1-0.8,0.8-0.8,1.3-0.8c0.9,0.1,1.4-0.6,1.4-1.1c0.1-1,0.7-1.8,0.7-2.8
		c0.5,1.2,1,2.4,1.5,3.6c0.5,0.7,0.2,1.4-0.3,2c-0.8,0.8-1.7,1.1-2.8,0.6C1010.7,75.5,1009.9,75.1,1009.5,74.4z"/>
	<path fill="#DCDB49" d="M967.4,21c-0.4-0.5-0.7-0.1-1.1,0c-0.3-2.4-1.7-4.1-3.6-5.3c-0.4-0.2-1-0.4-0.8-0.8
		c0.1-0.6,0.8-0.4,1.2-0.3c1.1,0.2,1.9,1.1,2.4,2c0.9,1.4,2,2.7,3.8,2.9c-0.4,0.2-1.1-0.3-1.3,0.4c-0.2,0.5,0.2,0.9,0.5,1.3
		c0.3,0.4,0.5,0.9,1,1.1c0.3,0.4,0.5,0.8-0.2,1C968.6,22.6,968,21.8,967.4,21z"/>
	<path fill="#5E595A" d="M972.5,77.9c0-0.9,0.1-1.8-0.2-2.7c1.3,0.1,0.7,2.1,2,1.8c0.5-0.1,1.3-0.5,1.3-1.4c0.9,1.5-0.4,1.9-1.3,2.6
		c-0.8,0.2-1.1,1-1.8,1.4c-1.4,1.7-3.6,2-5.4,3c-0.6,0.2-1.2,0.3-1.8,0.2c-0.2-0.4,0.1-0.7,0.4-0.8c1.5-0.8,2.9-1.8,4.4-2.6
		C971,79,971.8,78.6,972.5,77.9z"/>
	<path fill="#655D5F" d="M969.4,63c-1-1.1-0.2-2.5-0.7-3.6c-0.1-0.1,0-0.3-0.1-0.6c-0.7,0.2-0.2,1.1-0.7,1.4
		c-0.5-2.7-1.2-5.4-0.6-8.3c0.7,0,0.7,0.6,1.1,1c0.5,0.8,0.5,1.6,0.6,2.5c0.1,1.9,0.5,3.8,0.8,5.7C969.8,61.8,970,62.5,969.4,63z"/>
	<path fill="#C5CE4E" d="M984.1,19.3c-0.6,0-1.2,0.1-1.8,0c-1.7-0.2-3.1,0.7-4.5,1.3c-0.6,0.2-1.2,1-1.5-0.3
		c-0.1-0.4-0.6-0.3-0.9-0.3c-1.5,0-3.1,0-4.6,0c-0.5,0-1,0.1-1.3-0.5c2.9,0,5.8,0.3,8.7-0.4c1.9-0.4,3.8-0.4,5.7-0.4
		c0.5,0,1,0.1,1.4,0.4C984.8,19.5,984.5,19.4,984.1,19.3z"/>
	<path fill="#443E3C" d="M938.5,82.3c0,0.2-0.1,0.3-0.2,0.4c-0.8,0.1-0.5-0.5-0.5-0.8c-0.1-0.8-0.3-1-1-0.5c-0.7,0.1-0.9-0.7-1.4-1
		c-0.3-0.6-0.3-1.2-0.1-1.8c0.9-0.6,0.5-1.5,0.6-2.3c0.1-1.3,0.3-1.4,1.4-0.7c0.4,0.6,0.1,1.3,0.4,1.9c0.1,1.3,0.3,2.7,0.4,4
		C938.1,81.8,938.1,82.1,938.5,82.3z"/>
	<path fill="#A17D6F" d="M913.8,110.1c-0.3,0.3-0.7,0.5-0.8,1c-1.7,2-3.4,3.9-5.1,5.9c-0.2,0.2-0.3,0.4-0.5,0.5
		c-0.3,0.1-0.7,0.4-0.8-0.3c1.5-1.8,3.1-3.5,4.4-5.4c0.8-0.4,1-1.3,1.6-2c0.3-0.3,0.2-0.8,0.7-0.9c0.1,0,0.2,0,0.3,0.1
		c0.2,0.2,0.3,0.4,0.4,0.6C914,109.8,913.9,110,913.8,110.1z"/>
	<path fill="#82726D" d="M937.7,77.4c-0.5-0.5-0.4-1.2-0.5-1.8c-0.5-0.6-0.4-1.4-1.1-2c-0.5,0.6-0.3,1.3-0.4,1.9
		c-0.1,1,0.3,2-0.3,2.9c0,0.6-0.2,1.2,0.2,1.8c0.2,0.2,0.2,0.5,0.1,0.8c-0.8,0-1.1-0.5-1.2-1.3c0.6-1.8-0.2-3.6,0.1-5.5
		c-1,0.1-1.4,1.3-2.4,1c-0.5-0.5,0.1-0.8,0.3-1c0.6-0.6,1.4-1.2,1.8-2c0.3-0.6,0.9-0.2,1.3-0.6c0.6,0,1.1,0.2,1.2,0.7
		C937.2,74.1,938,75.7,937.7,77.4z"/>
	<path fill="#B3948C" d="M906.6,117.3c0.2,0.3,0.5,0.3,0.8,0.3c-1.8,1.2-3.3,2.9-5.1,4.1c-1.3,0.8-2.6,1.2-4,1.3
		c-0.3,0-0.6,0-0.6-0.3c0-0.5,0.5-0.6,0.8-0.6c1.3,0,2.4-0.5,3.4-1.3C903.4,119.6,905,118.5,906.6,117.3z"/>
	<path fill="#C8D576" d="M1011.4,75.9c0.3,0,0.7,0,1-0.1c1.4-0.1,2-0.9,2.1-2.5c0.9,0.9,1.1,2.2,1.6,3.3c0,1.2-0.9,1-1.7,1.1
		c-0.3,0-0.7-0.1-0.9-0.4C1012.8,76.9,1012.1,76.4,1011.4,75.9z"/>
	<path fill="#3E3A3A" d="M972.5,77.9c-0.4,0.8-1.2,1.2-2,1.6c-1.8,1.1-3.7,1.8-5.2,3.3c-0.7,0.1-1.3,0.2-1.9-0.2
		c0.9-0.7,2-1.5,2.9-1.8c1.6-0.5,2.4-2.6,4.5-1.9C971.5,79.1,971.7,77.9,972.5,77.9z"/>
	<path fill="#595553" d="M935.7,71.8c0,0.2,0.5,0.8-0.2,0.5c-0.7-0.3-0.7-0.1-1,0.4c-0.6,1-1.7,1.6-2.4,2.5c0,0.4-0.3,0.6-0.6,0.8
		c-1.4,0.3-1.6,0.2-1.5-0.9c1-1.5,2.6-2.3,4.1-3.2C934.5,71.6,935.1,71.5,935.7,71.8z"/>
	<path fill="#72635A" d="M1011.1,60.9c-0.8,0-1.5,0-2.3,0c0-0.4,0.2-0.6,0.5-0.6c0.9,0,1.7,0,2.6,0c-1,0-2-0.1-3,0.1
		c-0.5,0.1-1,0.2-1.4-0.2c0.8-0.9,2-0.3,2.9-0.8c1.1,0.1,2.3-0.2,3.4,0.3c0.4,0.2,1.1,0.4,1,0.9c-0.1,0.5-0.8,0.4-1.2,0.4
		C1012.8,61,1012,61,1011.1,60.9z"/>
	<path fill="#987B71" d="M952.5,102.2c0,0.7,0,1.4,0,2c-0.2,3.9-0.7,7.8,0.7,11.6c-0.2,0.4,0.1,1-0.6,1c-0.8-0.5-0.3-1.4-0.6-2.1
		c-0.2-0.4-0.1-0.9-0.3-1.3c0,0,0,0,0,0c-0.2-1.2,0.2-2.4-0.3-3.6c0.5-1.3,0.2-2.6,0.3-3.9c0.1-1.2,0.3-2.3,0.1-3.5
		c-0.1-0.4,0-0.7,0.5-0.6C952.5,101.9,952.5,102,952.5,102.2z"/>
	<path fill="#8A6B5D" d="M961.6,104.8c0.3-0.1,0.4-0.6,0.8-0.5c0,2.4,0.5,4.5,3.1,5.4c0.1,1-0.6,0.6-1,0.6c-0.9-0.2-1.8-0.6-2-1.6
		C962,107.3,961.4,106.2,961.6,104.8z"/>
	<path fill="#5B4942" d="M954.7,74.6c-0.5-0.6-0.9-1.2-1.6-0.2c-0.2,0.3-0.6,0.2-0.5-0.4c0.1-0.9-0.3-1-0.8-0.4
		c-0.5,0.5-1,0.5-1.6,0.3c0.4-1,1.2-1.5,2.1-1.9c0.7-0.3,1.2,0.1,1.6,0.6c0.4,0.4,0.6,1,0.9,1.5C954.8,74.5,954.8,74.5,954.7,74.6z"
		/>
	<path fill="#CBCC42" d="M984.1,19.3c0.4,0,0.8,0,1.1-0.1c2,0.3,4,0.8,5.8,1.7c0.2,0.1,0.4,0.2,0.6,0.2c1.2-0.1,1.6,0.5,1.7,1.6
		c0,0-2.5-0.8-2.5-0.8c-0.4,0-0.8,0-1-0.4c-0.6-1.1-1.6-1.4-2.7-1.4C986.1,20,985.1,19.8,984.1,19.3z"/>
	<path fill="#574D4C" d="M911.5,89.8c-0.3,0.9,0.8,1.3,0.7,2.1c-1.2-0.3-2.2-0.9-3.1-1.9c-0.1-0.2-0.3-0.4-0.4-0.7
		c-0.2-0.3-0.4-0.7-0.1-1c0.3-0.4,0.6,0,0.9,0.1c0.1,0,0.3,0,0.4,0C910.6,88.8,911.2,89.1,911.5,89.8z"/>
	<path fill="#E8D8D8" d="M880.7,89.8c0,0.2,0.1,0.4,0.3,0.5c2.2,0.5,4.2,1.5,6.5,1c-1.4,0.9-3,0.6-4.4,0.4c-0.7-0.1-1.4-0.4-2.2-0.5
		C879.7,90.9,879.9,90.5,880.7,89.8z"/>
	<path fill="#E6DADC" d="M962.5,108.6c0.7,0.4,1.1,1.3,2,1.3c0.5,0.4,1.2,0.4,1.8,0.5c-0.2,1.2-1.3,1-1.8,0.6
		c-0.9-0.7-2-0.7-2.8-1.3c-0.3-0.2-0.9-0.2-0.8-0.8c0.2-0.6,0.6-0.1,1-0.1C962.2,108.8,962.4,108.7,962.5,108.6z"/>
	<path fill="#7D635D" d="M913.8,77.1c-0.1-0.5,0.5-1.1-0.3-1.5c1.4-1.3,3.7-1.7,4.9-0.8c-0.6,0.3-1.5,0.2-1.8,1
		c-0.5-0.5-1-0.5-1.5,0.1C914.7,76.3,914.2,76.7,913.8,77.1z"/>
	<path fill="#ECDDE0" d="M951.7,113.5c0.7,1,0.3,2.4,1,3.4c0.5,0,0.7,0.4,0.9,0.7c0.2,0.4,0.3,0.9,0,1.3c-0.5-0.2-2.3-2.5-2.1-2.7
		C952.3,115.4,951.4,114.4,951.7,113.5z"/>
	<path fill="#C8BFBE" d="M927.5,78c-0.8,0-1.6-0.1-2.3-0.1c0.3-0.3,0.7-0.5,1.2-0.4c1.4,0.3,2.3-0.4,2.9-1.6
		c0.4,0.5,1.1,0.2,1.6,0.5c-0.1,0.9-1.1,1.1-1.5,1.8C928.6,78.3,928,78.4,927.5,78z"/>
	<path fill="#786952" d="M993.9,67.4c-0.4,0.5-0.9,1-1.3,1.5c-0.6,0.3-1.2,0.6-1.8,0.8c-0.7-0.6-0.4-0.9,0.4-1.1
		c0.6-0.6,0.9-1.5,2-1.5c0.1,0,0.3-0.4,0.4-0.6C993.9,66.8,994,67.1,993.9,67.4z"/>
	<path fill="#2C2B29" d="M958.6,82.6c-0.8-0.9-1.1-0.1-1.5,0.4c-0.2,0.2-0.1,0.8-0.6,0.6c-0.4-0.2-0.3-0.7-0.1-1
		c0.2-0.4,0.4-0.9,0.9-1c0.8-0.2,1.4-0.6,2.1-1.1C959.3,81.3,959,82,958.6,82.6z"/>
	<path fill="#827E82" d="M967.1,82.6c0.7-0.8,1.7-1.2,2.6-1.5c0.9-0.3,1.7-0.5,2.2-1.4c0.1-0.3,0.4-0.2,0.7-0.2
		c0.1,0.1,0.1,0.1,0.1,0.2c0,0.1,0,0.1-0.1,0.1C971.1,81.5,969.2,82.3,967.1,82.6z"/>
	<path fill="#E6EBB8" d="M1013.5,77.4c1,0.2,1.9,0.2,2.6-0.8c0.1,0.1,0.2,0.2,0.2,0.3c0.2,0.5,0.7,1.1,0.3,1.6
		c-0.4,0.5-1-0.1-1.5-0.3C1014.5,78,1013.8,78.1,1013.5,77.4z"/>
	<path fill="#E1D6D5" d="M902.2,84.1c0.3-0.6,0.8-0.4,1.3-0.5c0.3,0.2,0.6-0.1,1-0.1c-1,1.1-0.1,2.6-0.9,3.8
		c-0.1-0.8-0.4-1.6-0.3-2.3C903.3,84,902.9,84,902.2,84.1z"/>
	<path fill="#78645B" d="M916.6,75.8c0-1.5,1-1.1,1.8-1c0.3,0,0.5,0,0.7,0.3c-0.4,0.7-1.6,0.1-1.7,1.2C917,76.5,916.9,76,916.6,75.8
		z"/>
	<path fill="#D2D2D3" d="M954.7,74.6c0-0.1,0-0.2,0.1-0.3c0.6-0.5-0.1-1.5,0.7-1.8c0,0.1,0,0.2,0.1,0.3c-0.3,1.1,0.1,2.1,1,3.1
		C955.4,75.9,954.9,75.4,954.7,74.6z"/>
	<path fill="#BA9B89" d="M991.2,68.7c-0.3,0.3-0.8,0.5-0.4,1.1c-0.4,0.8-1.1,0.8-1.8,0.7c0.3-0.1,0.6-0.3,1-0.5
		c-0.5-0.4-0.9-0.7-1.3-1C989.4,67.8,990.3,68.4,991.2,68.7L991.2,68.7z"/>
	<path fill="#634841" d="M964.1,85.9c0,0.2,0,0.4-0.1,0.5c-0.3,0.2-0.8,0.2-0.7,0c0.2-1-0.8-1.5-1-2.3c0-0.1,0-0.2,0-0.4
		c0.1-0.2,0.3-0.3,0.4-0.4C963.7,83.9,963.9,85,964.1,85.9z"/>
	<path fill="#585653" d="M949.3,75c0.2,0.2-0.5,1,0.4,0.5c0.3-0.2,0.6-0.6,1-0.3c-0.4,1.2-1.4,1.3-2.4,1.1
		C948.5,75.8,948.7,75.3,949.3,75z"/>
	<path fill="#9F9391" d="M930.8,76.4c-0.5-0.2-1.5,0.9-1.6-0.6c0.1-0.4,0.2-0.8,0.8-0.8c0.1,1.4,0.9,0.7,1.6,0.6
		C931.8,76.4,931.5,76.6,930.8,76.4z"/>
	<path fill="#8B8182" d="M909.9,88.8c-0.4,0.2-0.8-0.6-1.1-0.2c-0.4,0.5,0.4,0.9,0.3,1.5c-1.1-0.7-0.6-1.9-0.8-2.8
		c0.7,0.1,0.8,1,1.6,1.1C910.1,88.5,910.1,88.6,909.9,88.8z"/>
	<path fill="#C0A598" d="M953.5,118.9c-0.1-0.4-0.2-0.9-0.2-1.3c0.3-0.3,0.7,0,1-0.2C955,118.7,954.9,118.8,953.5,118.9z"/>
	<path fill="#604032" d="M954.2,117.4c-0.2,0.6-0.6,0.3-1,0.2c-0.2-0.2-0.4-0.5-0.6-0.7c0.2-0.3,0.3-0.7,0.5-1
		C953.1,116.6,953.9,116.8,954.2,117.4z"/>
	<path fill="#655D5F" d="M967.9,60.7c0.9,0.8,0.3,1.9,0.5,2.9C967.9,62.7,967.8,61.7,967.9,60.7z"/>
	<path fill="#706560" d="M912,81.8c-0.2,0.9-0.6,1.6-1.8,1.3C910.9,82.8,911.2,82,912,81.8z"/>
	<path fill="#8B8182" d="M908.4,85.1c-0.2,0.7-0.3,1.4,0,2.1C907.4,86.3,907.4,85.9,908.4,85.1z"/>
	<path fill="#B59D92" d="M966.3,110.4c-0.8,0.7-1.3-0.1-1.8-0.5c0.4-0.1,0.9,0.6,1.1-0.3C966,109.7,966.3,109.9,966.3,110.4z"/>
	<path fill="#A09AA5" d="M972.6,79.8c0-0.1,0-0.2,0-0.3c0.5-0.5,0.7-1.6,1.8-1.3C973.7,78.7,973.3,79.5,972.6,79.8z"/>
	<path fill="#181715" d="M962.7,83.4c-0.1,0.1-0.2,0.1-0.2,0.2c-0.4,0.4-0.9,0.4-1.5,0.3c-0.2,0-0.4-0.2-0.6-0.3
		c-0.2,0-0.4-0.1-0.5-0.3C960.8,83.2,961.8,83.2,962.7,83.4z"/>
	<path fill="#AC978A" d="M962.4,100.8c-0.2,0.6,0,1.4-0.7,1.8c0-0.3,0-0.5,0-0.8C962,101.6,962,101,962.4,100.8z"/>
	<path fill="#8DA92D" d="M996.5,54c0.9,1.2,1.7,2.3,2.6,3.5c-0.1,0.1-0.1,0.1-0.2,0.2c-0.4-0.4-0.8-0.9-1.2-1.1
		c-1-0.3-2.2-0.2-2.3-1.8c0-0.2-0.6-0.6-0.5-1.2c0-0.2-0.3-0.6-0.6-0.8c-1.1-0.6-1.9-1.6-2.4-2.7c-0.3-0.8-0.8-1.4-1.7-1.6
		c-0.5-0.1-0.2-0.5-0.3-0.7c-0.2-0.5-0.6-0.6-1-0.1c-0.1,0.1-0.2,0.2-0.2,0.2c0-1-1.5-0.6-1.3-1.9c0.2-1-0.3-2-1.4-2.4
		c-0.5-0.2-0.6-0.7-0.8-1.1c-0.2-0.3-0.3-0.8-0.8-0.6c-0.4,0.1-0.8,0.1-0.8-0.3c0-0.6,0.3-1.1,0.7-1.4c0.3-0.2,0.5,0.1,0.7,0.3
		c0.3,0.4,0.7,0.7,1.2,0.8c-0.8-1.4-2.2-2.2-3-3.7c1.3-0.1,2.1,0.1,2.2,1.5c0.1,0.8,0.9,1.4,1.4,1.8c0.9,0.7,1.3,2.1,2.7,2.2
		c0.4,0,1.3,0.5,1,1.5c-0.2,0.6,0.4,1.1,0.8,1.5c1.1,1,2.3,2,3.3,3.1c-0.3,0.6-0.5,0.5-0.7,0.4c-0.2-0.1-0.4,0-0.4,0.3
		c0,0.3,0.2,0.4,0.4,0.3c0.4-0.1,0.8-0.2,1.3-0.2c0.6,0.1,2-0.6,1.1,1.1c-0.3,0.6,0.3,1.2,0.8,1.6c0.8,0.7,1.2,1.7,1.7,2.8
		C997.7,55.4,997.5,54.1,996.5,54c-0.2-0.2-0.4-0.4-0.6-0.7C996,53.6,996.3,53.8,996.5,54z"/>
	<path fill="#53433E" d="M993.9,67.4c-0.1-0.2-0.2-0.5-0.3-0.7c0.3-0.3,0.5-0.5,0.8-0.8c1.9-0.7,3.4-2,5.2-2.9
		c2.5-1.2,5.1-2.5,7.9-2.8c1.6,0,3.1,0,5,0c-1.4,0.6-2.7-0.3-3.7,0.8c-3.9,0.7-7.6,2.1-11.1,4.1C996.4,65.8,995.3,66.8,993.9,67.4z"
		/>
	<path fill="#ADC335" d="M969.2,23.4c0.4-0.3,0.2-0.7,0.2-1c1.8-0.1,0.3,1.4,0.9,1.9C969.9,24,969.5,23.7,969.2,23.4z"/>
	<path fill="#FEFEFE" d="M991.1,68.6c-0.7,0.3-1.6-0.3-2.3,0.3c-3.5,0.7-7.1,0.2-10.6,0.8c-1.7,0.2-3.1,0.9-4.3,2
		c-0.5,0.1-0.8,0-1.1-0.4c-0.8-0.8-1.6-1.5-2.6-2c-0.5-0.2-0.7-0.6-0.6-1.3c0.2-1.7,0.1-3.4-0.1-5.1c0-2.7-0.8-5.3-0.9-8
		c0-0.7-0.2-1.4-0.1-2.1c0.8,0.5,0.8,1.5,1.4,2.1c1.8,1.8,3.8,3.4,5.4,5.4c1.2,1.5,3,1.7,4.3,2.9c1.2,1,2.3,2,3.1,3.3
		c0.6,1,1.2,1,1.8,0.5c1.3-1.1,2.2-0.5,3.1,0.4c0.5,0.5,0.8,0.5,1.4,0.3C989.7,67.5,990.6,67.7,991.1,68.6z"/>
	<path fill="#A2BB30" d="M983.3,64.6c0,0.2-0.1,0.4-0.3,0.3c-0.3-0.1-0.5-0.2-0.5-0.5c0-0.2,0-0.4,0.3-0.3
		C983.2,64.1,983.3,64.3,983.3,64.6z"/>
	<path fill="#494547" d="M934.7,83.6c0.2,1-0.4,1.6-1.1,2c-0.4,0.2-0.6,0.6-0.9,0.8c-2,0.2-3.9,0.5-5.7,1.3
		c-0.3,0.1-0.6,0.3-0.8,0.1c-0.9-0.7-2-0.5-3-0.3c-0.7,0.2-1.3,0.1-1.8-0.2c-1.8-1.1-3.8-0.6-5.7-0.9c-1-0.2-1-0.3-0.5-1
		c0.5-0.9,1.2-1.2,2.2-1.4c3.7-0.5,7.5-0.6,11.3-0.9C930.7,83.1,932.6,83.6,934.7,83.6z"/>
	<path fill="#373230" d="M909.9,88.8c0-0.2,0-0.3,0-0.5c-1-1.5-0.2-2.9,0.5-4.3c0-0.1,0.1-0.2,0.1-0.2c1.9-0.5,3-2.3,5.1-2.7
		c1.5-0.3,3.1-0.6,4.5-1.5c0.4-0.2,0.8-0.5,1.3-0.3c0.5,0.2,0.8-0.1,0.9-0.6c1.3-0.1,2.6-0.4,3.8-0.1c0.1,0.1,0.1,0.1,0.1,0.2
		c0,0.1,0,0.1-0.1,0.1c-1.6-0.1-3.3-0.1-4.3,1.2c-0.9,1.1-1.5,1.5-2.7,0.7c-0.7-0.5-1.5,0-2.1,0.6c-0.9,1-2.1,1.6-3.4,1.9
		c-1.9,0.5-2.7,1.6-2.6,3.6c0,0,0,0.1,0,0.1c-0.9,1.7,0.5,1.9,1.5,2.3c1.1,0.4,2.3,0.5,3.4,0.7c0.1,0,0.3,0,0.4,0
		c1.7,1.4,3.6,0.9,5.5,0.6c2-0.3,4,0.3,5.9,0.9c1.1,0.3,2.2,0.5,3.4,0.1c0.4-0.1,0.9-0.4,0.8-1c-0.1-0.5-0.4-0.8-1-0.7
		c-0.2,0.1-0.5,0-0.5-0.3c0-0.3,0.2-0.4,0.4-0.3c0.8,0.4,1.5-0.1,2.1-0.5c0.5-0.2,1.2-0.7,1.7-0.2c0.6,0.5-0.2,1-0.3,1.6
		c0.4,0.1,0.8,0.2,1.1-0.4c0.3-0.5,0.6-0.3,0.7,0.2c0.1,0.6-0.2,0.8-0.8,0.8c-0.9-0.5-1.5,0-2.2,0.4c-1.3,0.8-2.6,1.7-4.2,1.9
		c-1.2-0.7-2.6-0.2-3.7-0.6c-1.7-0.6-3.1-0.1-4.6,0.3c-0.8,0.2-1.6,0.3-2.4-0.2c-1.5-1-3.3-0.6-4.8-1.4c-0.8-0.4-1-1.5-2.1-1.6
		C910.8,89.6,910.7,88.8,909.9,88.8z"/>
	<path fill="#DEDBE7" d="M939.5,91.3c0.1-0.1,0.1-0.1,0.1-0.2c0-0.3,0-0.5,0.4-0.6c0.2,0,0.4,0.2,0.4,0.4c0.1,0.3-0.1,0.6,0.2,0.8
		c0.1,0.1,0.2,0.2,0.3,0.3c0.7,0.3,1.3,0.8,1.9,1.2c0.4,0.2,0.6,0.6,0.4,1.1c-2,1-4,1.6-6.2,1.1c-0.6-0.1-1.5,0.7-1.9-0.4
		c-0.1-0.3,0-0.5,0.1-0.8C936.9,93.6,938.6,93,939.5,91.3z"/>
	<path fill="#292421" d="M928.2,96c1.1-0.5,2.3-0.8,3.5-1.1c1.5-0.4,2.6-1.3,3.2-2.8c0.1-0.1,0.2-0.1,0.2,0c0,0.2,0.1,0.4,0.3,0.5
		c0,0.6-0.1,1.1-0.2,1.7c-0.5,1.4-1.6,2.1-3,2.5c-0.5,0.1-1,0.1-1.5,0.4c-1.5,0.8-1.9,0.7-2.7-0.9C928.1,96.2,928.1,96.1,928.2,96z"
		/>
	<path fill="#332B29" d="M960.4,83.6c0.2,0,0.3,0,0.5,0c0.3,0.6,0.7,1.3,0.5,2.1c-0.5,0.7-1.2,1.2-1.9,1.7c-0.4,0.2-0.6,0.5-0.9,0.9
		c-1.2,0.9-2.4,1.5-3.7,2.3c-0.5,0.3-1.1,0.7-1.8,0.4c-0.4-0.7-0.7-1.3-0.7-2.1c2.1,0.4,3.7-0.9,5.4-1.7c0.4-0.2,0.7-0.4,1.1-0.6
		C960.7,85.7,960.9,85.4,960.4,83.6z"/>
	<path fill="#52443F" d="M952.4,88.8c0.6,0.6,0.7,1.3,0.7,2c0.3,0.5-0.2,0.7-0.4,1.1c-0.1,0.1-0.2,0.1-0.3,0.1
		c-0.6-0.4-0.7-0.1-0.8,0.5c-0.1,0.5,0.2,1.2-0.8,1l-0.1,0c-0.5-0.5,0.1-1.5-0.6-1.8c-0.6-0.3-1,0.8-1.7,0.5c-0.2-0.5,0-0.8,0.3-1
		c0.2-0.7,1.1-0.8,1.3-1.5c0.7-0.2,1.1-0.8,1.6-1.3C952,88.3,952.3,88.5,952.4,88.8z"/>
	<path fill="#372E2C" d="M948.8,91.1c-0.1,0.3-0.2,0.6-0.3,1c0,1-0.7,1.4-1.5,1.7c-0.7,0.5-1.5,0.7-2.3,0.7
		c-0.6,0.4-1.1,0.5-1.5-0.3c0-0.8-0.8-0.6-1.2-0.9c-0.4-0.4-1-0.5-1.1-1.1c0.8-0.3,1.7,0.1,2.5-0.2c0.3-0.1,0.6,0.1,0.5,0.5
		c-0.3,0.9,0.5,1.3,0.9,1.6c0.5,0.4,1-0.4,1.4-0.8C947.1,92.5,947.8,91.7,948.8,91.1z"/>
	<path fill="#473C39" d="M935.2,94.2c-0.1-0.6-0.4-1.1,0.3-1.5c0.2-0.3,0.5-0.2,0.6,0c0.6,1.1,1.4,0.2,1.5-0.2
		c0.3-1.3,1.2-1.1,2-1.2c-0.4,1.6-2.5,3.1-4,2.9C935.4,94.3,935.3,94.3,935.2,94.2z"/>
	<path fill="#443A35" d="M926.2,79c0-0.1,0-0.2,0-0.3c0.5-0.1,1.3,0.3,1.3-0.7c0.7,0,1.4,0,2.1-0.1c1.5-0.5,2.6,0.2,3.7,1
		c0,0.1-0.1,0.3-0.2,0.3c-1.2,0.1-2.3-0.4-3.4-0.5c-0.8-0.1-1.6-0.3-2.3,0.4C926.9,79.7,926.5,79.3,926.2,79z"/>
	<path fill="#181715" d="M954.2,87.1c1-0.9,1.9-1.9,3.2-2.1c0.3,0,0.6-0.2,0.8,0.2c0.2,0.4-0.1,0.6-0.3,0.7
		C956.8,86.8,955.6,87.1,954.2,87.1z"/>
	<path fill="#181715" d="M935.2,92.1c-0.1,0-0.1,0-0.2,0c0-0.4,0.6-0.6,0.5-1c0.3-0.2,0.6-0.4,0.8-0.8c0.6,0.1,1.4-0.3,1.9,0.2
		c0.2,0.1-0.1,0.4-0.2,0.5c-0.7,0.5-1,1.7-2.2,0.9C935.6,91.9,935.3,92.1,935.2,92.1z"/>
	<path fill="#362F2B" d="M948.3,88c-0.2,0.8-0.4,1.5-1.3,1.8c-0.5-0.4-0.8-1-1.4-1.3c-0.1-0.1-0.2-0.2-0.2-0.3
		C946.3,87.4,947.4,88.2,948.3,88z"/>
	<path fill="#362F2B" d="M945.2,91.3c-0.1,0.6-0.5,0.6-1,0.6c-0.2-1,0.1-2-0.1-3c-0.3-1.1,0.9-0.3,1.4-0.7c0,0,0.1,0.1,0.1,0.1
		C945.4,89.3,944.7,90.2,945.2,91.3z"/>
	<path fill="#443A35" d="M934.6,79.8c0.1,0.6,0.8,0.7,1,1.2c0.4,0.1,0.8,0.2,0.5,0.8c-1.1-0.3-1.7-1.4-2.8-1.7
		c-0.3-0.1-0.5-0.4-0.4-0.8c0,0,0.1-0.1,0.1-0.1C933.8,79,934.4,79.1,934.6,79.8z"/>
	<path fill="#181715" d="M941.8,90.1c-0.3,0-0.8,0-0.7-0.5c0.1-0.3,0.4-0.7,0.8-0.7c0.4,0,0.6,0.3,0.6,0.7
		C942.5,90.3,942,90,941.8,90.1z"/>
	<path fill="#59504E" d="M936.2,81.8c0.1-0.4-0.4-0.5-0.5-0.8c0-0.3,0-0.5,0-0.8c0.6,0.1,0.5,0.9,1,1c-0.1,0.3,0.4,0.6,0.1,0.9
		C936.5,82.5,936.5,81.9,936.2,81.8z"/>
	<path fill="#332B29" d="M951.7,88.3c-0.1,1-0.7,1.3-1.6,1.3C950.6,89.1,950.9,88.4,951.7,88.3z"/>
	<path fill="#372E2C" d="M940.6,91.8c-0.1-0.2-0.3-0.4-0.3-0.6c-0.2-0.8-0.4-0.2-0.7,0c-0.1,0-0.1-0.1-0.1-0.1
		c-0.1-0.4-0.2-0.9,0.6-0.8C940.9,90.5,940.5,91.3,940.6,91.8z"/>
	<path fill="#181715" d="M940.1,90.3c-0.5,0.1-0.5,0.4-0.6,0.8c-0.3-0.5-0.4-1,0.1-1.3C939.9,89.6,940,90,940.1,90.3z"/>
	<path fill="#444344" d="M953.5,79.5c-0.2-0.7-1.6-0.8-0.9-1.7c0.5-0.7,1.4-0.3,2.1-0.3c2.2-0.1,0.7,1.3,0.8,2
		C954.8,80,954.1,80.5,953.5,79.5z"/>
	<path fill="#EBE9EE" d="M945.2,91.3c-0.6-0.3-0.8-1.9-0.1-2.4c0.2-0.2,0.4-0.3,0.4-0.6c0.9,0.1,1.3,0.8,1.5,1.5
		C946.4,90.3,945.8,90.8,945.2,91.3z"/>
	<path fill="#CFCCD5" d="M913.3,109.1c-0.3,0.3-0.3,0.7-0.8,0.8c-0.2-1-0.5-1.8-1.7-1.3c-0.3,0.1-0.6,0-0.8-0.2
		c-0.9-0.6-1.9-0.8-2.9-1c-1.2-0.2-2.2-0.5-2.5-1.8c-0.4-1.8,0.5-3.8,1.8-4.3c1-0.4,1.9-0.9,2.6-1.8c0.7-0.8,1.7-0.7,2.5-1
		c2-0.6,4-1.3,6-1.9c1.6-0.5,3.2-1,4.9-0.8c0.2,0,0.4,0.1,0.5,0c1.6-1.1,3.1,0.5,4.7,0.3c0,0.8-0.5,1.2-1.1,1.5
		c-1.5,0.5-3,1-4.6,0.6c-0.4-0.1-0.8,0-1.1,0.2c-1.5,0.7-3.1,1.1-4.6,1.7c-1.6,0.6-3.2,1.1-4.8,1.5c-1,0.3-1.8,0.8-2.4,1.6
		c-0.7,1-0.4,1.8,0.7,2.4c0.6,0.3,1.2,0.3,1.7,0.4C912.8,106.2,913.7,107.7,913.3,109.1z"/>
	<path fill="#6A534B" d="M926.4,97.3c0.4-0.4,0.7-0.8,1.1-1.2c0.2,0,0.5,0,0.7,0c0,0.1,0,0.2,0,0.3c-0.4,0.6,0.3,1.5-0.5,1.9
		c-0.4,0.1-0.7,0.4-1,0.7c-0.9,1.4-2.1,2.4-3.3,3.5c-0.3,0.3-0.6,0.6-1.1,0.4c-0.3-0.6,0.1-0.9,0.4-1.2c0.7-0.7,1.4-1.4,2.1-2
		c0.7-0.6,0-0.6-0.3-0.8c-0.2-0.7,0.3-0.8,0.7-0.9C925.7,97.7,926.1,97.5,926.4,97.3z"/>
	<path fill="#D2CFDA" d="M913.8,110.1c0-0.2,0-0.3,0-0.5c0.2-1.3,1.3-1.3,2.3-1.5c1.1-0.2,2-1.2,3.1-1.4c2.7-0.4,5.3-0.9,8-1.2
		c1.8-0.2,3.4-0.8,5-1.4c3.1-1.2,6.3-1.9,9.6-2.2c1.1-0.1,2.2-0.4,3.3-0.6c1.1-0.2,2.2,0,3.3-0.1c0.6-0.1,1.5-0.5,1.7,0.7
		c0.1,0.3,0.8-0.4,1,0.3c-0.3,0.8-0.8,1-1.7,1.1c-3.2,0.2-6.4,0.7-9.7,0.9c-1.5,0.1-2.9,0.4-4.3,0.7c-2,0.4-3.8,1.3-5.6,2
		c-1.8,0.7-3.7,0.9-5.6,1.3c-1.8,0.3-3.7,0.1-5.4,0.9c-0.8,0.4-1.7,0.5-2.6,0.4C915.3,109.2,914.5,109.5,913.8,110.1z"/>
	<path fill="#A39EA6" d="M922.3,102.7c1.3-0.5,1.9-1.8,3-2.6c0.5-0.4,0.8-1,1.4-1.2c0,0.9,0.7,0.9,1.3,1c1.3,0.2,2.7,0.4,4,0.8
		c1.1,0.3,1.1,0.8,0.3,1.5c-0.9,0.7-1.9,1.2-3,1.4c-1.6,0.3-3.3,0.4-4.9,0.6c-1,0.1-1.9,0.3-2.8,0.6c-0.5,0.2-1,0.4-1.6,0.3
		C920.3,103.8,921.4,103.4,922.3,102.7z"/>
	<path fill="#ADA6AE" d="M944.6,100.1c-0.9,0.1-1.6,0-2.4-0.3c-0.8-0.3-1.1-0.9-0.5-1.6c1.4-1.5,3.3-2.4,5.3-2.4
		c1.4,0,1.2,1.6,1.5,2.5c0.2,0.8-0.5,1.4-1.2,1.5C946.4,99.9,945.5,100.3,944.6,100.1z"/>
	<path fill="#CECAD2" d="M943.2,94.1c0.4,0.4,1,0.3,1.5,0.3c0.3,0.5,0.9,0.1,1.4,0.5c-2.6-0.2-4.5,1.5-6.8,2.1
		c-1.7,0.4-3.4,0.9-5.1,1c-1,0.1-2,0.4-3,0.3c-0.4,0-0.9,0.1-1.2-0.3c2-0.7,3.8-1.7,5.4-3.2c0.1,0.1,0.1,0.3,0.2,0.4
		c0.9-0.7,1.9-0.1,2.8-0.1c1.2,0,2.4,0,3.4-0.8C942.2,94.1,942.8,94.4,943.2,94.1z"/>
	<path fill="#3E312C" d="M922.3,102.7c-0.6,1-1.7,1.4-2.3,2.3c-0.4,0.2-0.8,0.3-1.1,0.7c-1.1,0.7-2.4,1.3-3.3,2.3
		c-0.3,0.3-0.8,0.4-1.2,0.1c-0.4-0.3-0.2-0.7,0-1.1c0.1-0.4,0.4-0.6,0.7-0.9c2.4-1.9,4.7-4,7.1-5.9c0.3-0.2,0.5-0.4,0.8-0.6
		c0.5-0.2,1-0.6,1.5-0.8c0.1,0,0.1,0,0.2,0c0.2,0,0.4-0.1,0.6-0.2c0.2-0.1,0.4-0.3,0.5,0c0.2,0.2,0,0.4-0.1,0.5
		c-0.8,1.1-1.9,1.8-2.8,2.8C922.6,102.1,922.3,102.3,922.3,102.7z"/>
	<path fill="#312624" d="M950.9,93.4c0.7-0.2,0.4-0.8,0.5-1.3c0.1-0.4-0.2-0.9,0.5-1c0.6-0.1,0.5,0.5,0.8,0.8
		c0.3,0.2,0.4,0.6,0.4,0.9c0,2.1,0.2,4.2-0.2,6.2c-0.3,1.7-0.5,1.8-2,0.8C950.5,97.7,950.9,95.5,950.9,93.4z"/>
	<path fill="#483D3A" d="M935.4,94.9c-0.6,0.7-1.2,1.4-1.9,2c-1,0.8-2.3,0.8-3.5,1.1c-0.8-0.3-1.6,0.5-2.4,0.1c0-0.4,0.4-0.8,0-1.3
		c-0.3-0.4,0.2-0.5,0.5-0.6c0.7,1,1.4,1.8,2.6,0.6c0.2-0.2,0.5-0.3,0.8-0.3c1.7,0,2.7-1.1,3.6-2.3c0.1,0,0.2,0,0.3,0
		C935.5,94.4,935.4,94.7,935.4,94.9z"/>
	<path fill="#D4D1DA" d="M947,93.7c0.5-0.6,1-1.1,1.5-1.7c0.7-0.4,1.3-1.4,2.1-0.9c0.7,0.5,0.1,1.5,0.1,2.2c-1,0.7-2.3,0.6-3.4,0.7
		C947.1,94.2,947.1,93.9,947,93.7z"/>
	<path fill="#7B6B6A" d="M915.3,106.3c-0.3,0.6-1.3,1.2-0.7,1.7c0.6,0.6,1.1-0.5,1.6-0.9c0.8-0.6,1.7-1.1,2.7-1.4
		c-0.3,0.9-1.3,0.8-1.8,1.4c-0.3,0.3-0.8,0.5-1,0.9c-0.7,0.6-1.8,0.6-2.3,1.5c-0.3-0.1-0.3-0.3-0.3-0.6c0.1-0.7-0.2-1.6,0.4-2.2
		C914.4,106.6,914.6,105.9,915.3,106.3z"/>
	<path fill="#664339" d="M952.4,101.9c-0.4,0-0.5,0.2-0.5,0.6c0,2.2,0,4.4-0.1,6.6c0,0.4-0.1,0.7-0.5,0.8c0.1-1.8,0.1-3.7,0.2-5.5
		c0.1-1.4-0.3-2.5-0.7-3.8c1-0.5,1.1,0.5,1.6,0.9C952.5,101.7,952.5,101.8,952.4,101.9z"/>
	<path fill="#59392A" d="M952.4,101.6c-0.7,0-0.7-1.2-1.5-1c0-0.3,0-0.5,0-0.8c1.4,0.7,1.6-0.1,1.7-1.3c0.2-2.2,0.1-4.4,0.1-6.6
		c0,0,0.1-0.1,0.1-0.1c0.2-0.1,0.3,0,0.4,0.1c0.4,2.5,0.3,5,0,7.5C953,100.2,953.4,101.1,952.4,101.6z"/>
	<path fill="#565256" d="M966.1,77.9c-1.1-0.2-1.4-1.3-1.7-1.9c-0.5-1-1.3-2-1.1-3.2c1.5-1.4,3.3-1.1,5.1-1c0.7,0,0.7,0.7,0.5,1.2
		C968.3,74.9,967.5,76.6,966.1,77.9z"/>
	<path fill="#312D2A" d="M960.9,75.4c-0.1-0.4-0.5-0.6-0.5-1c1.3,0,0.5-0.8,0.5-1.3c1,0.4,0.8,1.3,0.7,2.1
		C961.6,75.8,961.2,75.5,960.9,75.4z"/>
	<path fill="#312D2A" d="M957.8,71c0,0.6,0.4,0.7,0.9,0.8c0.7,0.2,1.6,0.1,1.9,1c-1-0.1-1.9-0.7-2.9-0.9
		C956.7,71.7,957.4,71.3,957.8,71z"/>
	<path fill="#49484B" d="M945.5,81.3c-0.6,0.1-1,0.6-1.6,0.5c-0.7-0.1-0.7-0.4-0.4-0.9c0.3-0.6,0.9-0.3,1.4-0.4
		C945.3,80.5,945.5,80.8,945.5,81.3C945.5,81.3,945.5,81.3,945.5,81.3z"/>
	<path fill="#D0CBD4" d="M960.7,98c-0.4,0.5-0.5,0.9-1.4,0.5c-0.8-0.4-1.6,0.4-2.1,1.1c-0.6,0.9-1.6,1.4-2.2,2.3
		c-0.4,0.5-1.3,0.9-2,0.3c-0.4-0.5-0.2-1-0.1-1.5c0.2-1.7,0.2-3.4,0.2-5.3c0.8,0.4,0.7,1,0.7,1.5c0.1,0.6,0.3,0.8,0.8,0.3
		c0.5-0.4,0.8-0.9,1.2-1.4c1.4-2,3.6-2.6,5.8-3c0.1,0,0.1,0.1,0.2,0.2c0.3,0.8,0.1,1.5-0.1,2.2l0,0c-0.3,0.5-0.5,1.1-0.8,1.6
		C960.7,97.2,960.3,97.6,960.7,98z"/>
	<path fill="#C3BEC5" d="M961.7,92.9c-0.7,0.7-1.7,0.6-2.5,0.9c-1.3,0.6-2.7,1.1-3.3,2.6c-0.1,0.3-0.5,0.6-0.8,0.8
		c-0.4,0.3-0.6,1-1.2,0.9c-0.7-0.2-0.5-1-0.5-1.6c0-0.2,0-0.5-0.1-0.8c0.1,2.1-0.4,4.2-0.4,6.4c-0.2,0-0.3,0-0.5,0
		c0-0.1,0-0.2,0-0.3c0-0.1,0-0.2,0-0.3c0.7-3.2,0.5-6.5,0.4-9.8c1,1.1,2.2,0.5,3.3,0.4c0.5,0,1,0,1.5-0.1c0.9-0.1,1.6-0.4,2-1.3
		C961.1,91.2,961.8,91.9,961.7,92.9z"/>
	<path fill="#C0A78E" d="M960.7,98c-0.6-0.1-0.6-0.4-0.4-0.8c0.4-0.7,0.6-1.5,1.4-2c0.1,0.7,0.9,0.9,1,1.6
		C962.1,97.3,961,97.1,960.7,98z"/>
	<path fill="#3D2B26" d="M961.2,85.7c0.1-0.7-0.5-1.3-0.3-2c0.5,0,1,0,1.5,0c0,0.5-0.2,1.1,0.7,1.2c0.6,0.1,0.4,0.6,0.3,0.9
		c-0.2,0.6,0,0.8,0.6,0.7c0.3,1.5,0.3,3.1,0.3,4.6c0,2,0,3.9,0,5.9c-0.2-1.3-0.7-2.3-2.1-2.8c-0.5-1.7-0.4-3.4-0.2-5.2
		c0-0.4,0.1-0.8,0.1-1.1c0-0.7,0.1-1.3,0.3-2.1C962,85.7,961.5,86.1,961.2,85.7z"/>
	<path fill="#83706A" d="M962.4,87.4c-0.1,2.2-0.4,4.5-0.2,6.7c0,0.4,0,0.8-0.5,1c0-0.8,0-1.5,0-2.3c-0.3-1.1-1.3-1.3-2.1-1.8
		c-1.3-0.8-1.6-1.7-1-3.1c0-0.5,0.3-0.7,0.7-0.8c0.7,0.6,0.6,1.6,1.1,2.3c0.2,0.4,0.4,0.9,0.9,0.8c0.5-0.1,0.3-0.6,0.4-1
		C961.9,88.7,961.6,87.8,962.4,87.4z"/>
	<path fill="#59504E" d="M935.5,78.5c0.1-1.9-0.5-3.8,0.7-5.8c0.5,1.1,1.1,1.8,1,2.9c-0.3-0.1-0.6-0.2-1-0.4c0,1,0,1.8,0,2.7
		C936.2,78.6,936,78.8,935.5,78.5z"/>
	<path fill="#B5B0B8" d="M914,107c-0.5,0.6-0.1,1.4-0.5,2c0,0-0.1,0-0.1,0s-0.1,0-0.1,0c-0.1-1.9-0.8-2.6-2.7-2.8
		c-0.9-0.1-1.9-0.4-2.3-1.4c-0.5-1.1,0.2-1.9,0.9-2.6c0.4-0.4,0.9-0.8,1.5-0.9c3.4-1,6.9-2,10.1-3.5c0.2-0.1,0.5-0.2,0.8-0.1
		c1.7,0.6,3.2-0.2,4.8-0.5c-0.3,0.9-1.5,0.6-1.8,1.5c0,0,0,0,0,0c-0.5,0.3-1,0.7-1.6,1c-0.3,0.1-0.3,0.6-0.7,0.6
		c-1.1,0.7-2.2,1.3-3.5,1.6c-0.6,0.2-1.2,0.5-1.2,1.2c-0.1,1.5-1.3,2.2-2.4,2.8C914.7,106.2,914.3,106.6,914,107z"/>
	<path fill="#FCFCFC" d="M934.6,79.8c-0.5-0.2-1-0.4-1.5-0.6c-1-1-2.3-1.1-3.6-1.3c-0.1-0.2-0.5-0.5,0-0.7c0.5-0.2,0.9-0.5,1.2-0.8
		c0.5-0.1,0.7-0.3,0.8-0.8c0.2-0.2,0.4-0.3,0.5-0.5c0.9,0,1.3-0.8,1.9-1.3c0.4-0.3,0.9-0.6,0.9,0.1c0.1,1.9,0.1,3.7,0.1,5.6
		C935,79.7,934.8,79.7,934.6,79.8z"/>
	<path fill="#A2BB30" d="M987.8,43.6c1.1,0.1,0.9,1.2,1.5,1.7C988.4,45.2,988.3,44.3,987.8,43.6z"/>
	<path fill="#A2BB30" d="M996.5,54c-0.7-0.1-1-0.7-1.2-1.3c0,0,0.1-0.2,0.2-0.2C996.1,52.8,996.3,53.4,996.5,54
		C996.5,54,996.5,54,996.5,54z"/>
	<path fill="#A2BB30" d="M991.5,47.7c-0.2,0-0.3,0-0.3,0c-0.2-0.4-0.8-0.5-0.8-1.1c0-0.1,0.2-0.2,0.2-0.2
		C991.1,46.6,991.3,47.1,991.5,47.7z"/>
	<path fill="#DFDAE3" d="M958.6,88c-0.3,1.2,0.5,2.1,1,3.1c0.2,0.6,0.2,0.9-0.5,1.2c-1.2,0.5-2.4,0.3-3.7,0.4
		c-0.7,0.1-1.4,0.2-2.1,0.5c-0.4-0.4,0.1-1.1-0.5-1.3c-0.1,0-0.1,0-0.2,0c-0.1-0.5,0.1-0.8,0.5-1.1c1.7-0.3,3-1.4,4.4-2.3
		C957.9,88.3,958.2,88.1,958.6,88z"/>
	<path fill="#F5F4F5" d="M962.4,87.4c-0.5,0.9-0.3,2-0.6,3c-0.1,0.6-0.3,0.8-0.9,0.3c-1.1-0.9-1.3-2.2-1.6-3.5
		c0.6-0.5,1.2-1,1.8-1.5c1.6-0.4,1.6-0.4,1.3,1.3C962.4,87.1,962.4,87.3,962.4,87.4z"/>
	<path fill="#9B979B" d="M914,107c-0.1-1.4,1.3-1.4,2.1-2c0.6-0.5,1-0.9,1.1-1.7c0.1-0.9,0.5-1.4,1.4-1.7c1.3-0.3,2.5-0.9,3.7-1.3
		c-2.2,2.1-4.6,4-7,5.9C914.7,106.2,914.5,106.9,914,107z"/>
	<path fill="#6A534B" d="M923,99.8c0.4-0.5,0.8-1,1.6-1C924.2,99.4,923.7,99.7,923,99.8z"/>
</g>
</svg>
