<svg xmlns="http://www.w3.org/2000/svg" xmlns:xlink="http://www.w3.org/1999/xlink" viewBox="0 0 1100 377.57"><defs><style>.cls-1{fill:url(#GoldGradient);}.cls-2{fill:url(#GoldGradient-2);}.cls-3{fill:url(#GoldGradient-3);}.cls-4{fill:url(#GoldGradient-4);}.cls-5{fill:url(#GoldGradient-5);}.cls-6{fill:#337338;}.cls-7{fill:#7d7d7d;}</style><radialGradient id="GoldGradient" cx="985.82" cy="59.84" r="91.49" gradientTransform="translate(0.47 0.13)" gradientUnits="userSpaceOnUse"><stop offset="0" stop-color="#dcb95b"/><stop offset="1" stop-color="#c2a032"/></radialGradient><radialGradient id="GoldGradient-2" cx="969.24" cy="99.83" r="104.19" xlink:href="#GoldGradient"/><radialGradient id="GoldGradient-3" cx="892.79" cy="152.34" r="152.77" xlink:href="#GoldGradient"/><radialGradient id="GoldGradient-4" cx="816.64" cy="204.6" r="104.62" xlink:href="#GoldGradient"/><radialGradient id="GoldGradient-5" cx="799.91" cy="245.75" r="91.88" xlink:href="#GoldGradient"/></defs><g id="Layer_2" data-name="Layer 2"><g id="LogoNormal"><path class="cls-1" d="M972.41,119.84H1100v-28H983.87l-.94-.92L890.53,0,870.9,19.94Z"/><path class="cls-2" d="M953.36,166.84H1100v-28H964.85l-.93-.92c-8.31-8.17-91.56-90.27-106.48-105L837.76,52.81Z"/><path class="cls-3" d="M934.33,211.84H1100v-27H945.38l-.92-.87c-8.35-7.91-87-82.24-96.37-91.13H685v27H837l.92.87C846.31,128.61,924.93,203,934.33,211.84Z"/><path class="cls-4" d="M685,164.84H820.23l.93.93,106.92,106.5,19.74-19.81-116-115.62H685Z"/><path class="cls-5" d="M685,212.84H799.7l.93.92c8.17,8,80.24,79.1,94.08,92.75l19.68-20L811.21,184.84H685Z"/><path class="cls-6" d="M111.36,212.84H85.72l-27.58-37H22v37H0v-120H62.59A40.67,40.67,0,0,1,92.09,105a39.65,39.65,0,0,1,12.28,29.35,41.09,41.09,0,0,1-23.7,37.25ZM76.3,149.05a19.73,19.73,0,0,0,0-28.26,19.94,19.94,0,0,0-14.47-6H22v40H61.83A19.8,19.8,0,0,0,76.3,149.05Z"/><path class="cls-6" d="M154,113.84v29h62v21H154v29h75v20H132v-120h97v21Z"/><path class="cls-6" d="M257,212.84v-120h22v120Z"/><path class="cls-6" d="M405,92.84v20H363v100H341v-100H299v-20Z"/><path class="cls-6" d="M525,108.13l-70.48,84.71H525v20H424V198.06l71-85.22H424v-20H525Z"/><path class="cls-6" d="M635,191.84v21H551v-120h22v99Z"/><path class="cls-7" d="M40.89,375.84H32.51l-3.22-8H11.92l-3.21,8H.27l15.62-39h9.43Zm-13.31-15-7-17.45-6.94,17.45Z"/><path class="cls-7" d="M87,375.84H60v-39h7v33H87Z"/><path class="cls-7" d="M159.17,336.84l-12.39,39h-7.59l-9.7-28.63-9.77,28.63h-7.59l-12.38-39h7.19L116,365.4l9.71-28.56h7.47l9.71,28.56,9-28.56Z"/><path class="cls-7" d="M212.53,375.84h-8.38l-3.21-8H183.56l-3.21,8h-8.44l15.63-39H197Zm-13.31-15-7-17.45-6.94,17.45Z"/><path class="cls-7" d="M260.47,336.84,245,360.33v15.51h-7V360.33l-15.41-23.49h8l11,16.68,11-16.68Z"/><path class="cls-7" d="M299.68,354.88a32,32,0,0,1,3.73,1.69,13.16,13.16,0,0,1,3.39,2.26,9.63,9.63,0,0,1,3.05,6.89c0,5.59-3.79,9.25-8.59,10.67a30.58,30.58,0,0,1-8.18,1,31.82,31.82,0,0,1-16.15-4.4l3.67-5.82a26.32,26.32,0,0,0,12.76,3.62c5.93,0,8.92-1.53,8.92-4.63,0-1.64-.9-3-2.94-3.95a31.47,31.47,0,0,0-6.54-2.49,2.47,2.47,0,0,0-.57-.17L288,358.21a39.86,39.86,0,0,1-3.73-1.64,15.47,15.47,0,0,1-3.5-2.26,10.34,10.34,0,0,1-3-7.22,9.14,9.14,0,0,1,4-7.74c2.88-2.09,6.88-3.1,12.13-3.1a30.44,30.44,0,0,1,15.25,4.35l-3.56,5.64a25.3,25.3,0,0,0-12-3.5c-5.36,0-8.18,1.64-8.18,4.12,0,1.64.9,2.94,2.76,3.9a40.13,40.13,0,0,0,6.44,2.42l1.13.34C297.31,354,298.67,354.48,299.68,354.88Z"/><path class="cls-7" d="M400,336.84v39h-7v-16H372v16h-7v-39h7v16h21v-16Z"/><path class="cls-7" d="M460.17,375.84h-8.38l-3.21-8H431.2l-3.21,8h-8.43l15.62-39h9.43Zm-13.3-15-7-17.45-6.94,17.45Z"/><path class="cls-7" d="M511.27,336.84l-15.62,39h-8l-15.63-39h7.43l12.21,30.57,12.28-30.57Z"/><path class="cls-7" d="M538,343.84v9h20v7H538v10h25v6H531v-39h32v7Z"/><path class="cls-7" d="M654.22,375.84h-8.38l-3.21-8H625.25l-3.21,8H613.6l15.63-39h9.43Zm-13.31-15-7-17.45L627,360.84Z"/><path class="cls-7" d="M726.83,354.88a32.75,32.75,0,0,1,3.72,1.69,13.16,13.16,0,0,1,3.39,2.26,9.59,9.59,0,0,1,3,6.89c0,5.59-3.78,9.25-8.58,10.67a30.71,30.71,0,0,1-8.19,1,31.76,31.76,0,0,1-16.14-4.4l3.67-5.82a26.26,26.26,0,0,0,12.76,3.62c5.92,0,8.91-1.53,8.91-4.63,0-1.64-.9-3-2.93-3.95a31.59,31.59,0,0,0-6.55-2.49,2.39,2.39,0,0,0-.56-.17l-4.24-1.35a38.74,38.74,0,0,1-3.72-1.64,15,15,0,0,1-3.5-2.26,10.34,10.34,0,0,1-3-7.22,9.16,9.16,0,0,1,4-7.74c2.88-2.09,6.89-3.1,12.14-3.1a30.43,30.43,0,0,1,15.24,4.35l-3.56,5.64a25.26,25.26,0,0,0-12-3.5c-5.36,0-8.19,1.64-8.19,4.12,0,1.64.91,2.94,2.77,3.9a39.61,39.61,0,0,0,6.43,2.42l1.13.34C724.46,354,725.81,354.48,726.83,354.88Z"/><path class="cls-7" d="M775.92,336a20.8,20.8,0,1,1-14.68,35.5A20.8,20.8,0,0,1,775.92,336Zm0,34.32a13,13,0,0,0,9.54-4,13.15,13.15,0,0,0,4-9.6,13.53,13.53,0,1,0-13.54,13.55Z"/><path class="cls-7" d="M845,375.84H818v-39h7v33h20Z"/><path class="cls-7" d="M900,336.84v22.07a18.5,18.5,0,0,1-37,0V336.84h7v21.72A11.38,11.38,0,0,0,883.33,370a10.21,10.21,0,0,0,5.18-2.19,11,11,0,0,0,4.49-8.87V336.84Z"/><path class="cls-7" d="M954,336.84v7H940v33h-7v-33H919v-7Z"/><path class="cls-7" d="M974,336.84h7v39h-7Z"/><path class="cls-7" d="M1022.68,336a20.8,20.8,0,1,1-14.68,35.5,20.8,20.8,0,0,1,14.68-35.5Zm0,34.32a13,13,0,0,0,9.54-4,13.12,13.12,0,0,0,4-9.6,13.52,13.52,0,0,0-27,0,13.49,13.49,0,0,0,13.49,13.55Z"/><path class="cls-7" d="M1094.62,375.84,1071,349.06v26.78h-7v-39h5.38L1093,363.62V336.84h7v39Z"/></g></g></svg>