<?xml version="1.0" encoding="utf-8"?>
<svg xmlns="http://www.w3.org/2000/svg" viewBox="0 0 380 153.07"><defs><style>.cls-1{fill:#006cb7;}.cls-2{fill:#da1967;}</style></defs><g id="Layer_2" data-name="Layer 2"><g id="landscape"><path class="cls-1" d="M364.05,82.77q7.59,0,11.78-2.55A7.88,7.88,0,0,0,380,73.16a5.83,5.83,0,0,0-2-4.69q-2-1.68-5.84-1.68a11,11,0,0,0-6.89,2.42,16.62,16.62,0,0,0-4.93,6.68,22.31,22.31,0,0,0-1.82,8.92c0,3.21.87,5.73,2.63,7.54a9.58,9.58,0,0,0,7.25,2.72,17.62,17.62,0,0,0,3.93-.41,21.52,21.52,0,0,0,4.3-1.55V89.28a25.14,25.14,0,0,1-3.76,1.54,12.08,12.08,0,0,1-3.67.55,5.71,5.71,0,0,1-4.63-1.79,7.37,7.37,0,0,1-1.51-4.92l.1-1.89Zm3.08-9.88A6.59,6.59,0,0,1,372,70.5a3.93,3.93,0,0,1,2.76.84,2.85,2.85,0,0,1,.89,2.16q0,2.76-3,4.2a19.77,19.77,0,0,1-8.4,1.44h-.37A14.25,14.25,0,0,1,367.13,72.89Z"/><path class="cls-1" d="M350.65,67.35a9.69,9.69,0,0,0-2.46,1.58,24.07,24.07,0,0,0-3,3.4H345l.55-5h-3.66L336,94.58h4.5l2.63-12.48a20,20,0,0,1,2.1-5.71,12.57,12.57,0,0,1,3.42-4.07,6.92,6.92,0,0,1,4.2-1.45,12.45,12.45,0,0,1,2.61.3l1-4a11,11,0,0,0-3-.35,7.19,7.19,0,0,0-2.86.56"/><path class="cls-1" d="M306.19,63.54,308,59.76a18.19,18.19,0,0,0-8.85-2,17.75,17.75,0,0,0-10,3,20.07,20.07,0,0,0-7,8.54,28,28,0,0,0-2.59,12q0,6.46,3.43,10.18t9.52,3.71a25.07,25.07,0,0,0,8.85-1.51v-4a25.6,25.6,0,0,1-8.05,1.49,8.27,8.27,0,0,1-6.54-2.67,10.68,10.68,0,0,1-2.36-7.32,25.28,25.28,0,0,1,1.9-9.85,16.25,16.25,0,0,1,5.23-7,12.58,12.58,0,0,1,7.68-2.46,15,15,0,0,1,7,1.79"/><path class="cls-1" d="M330.3,67.29l-1.61,4.22h-.28a8.46,8.46,0,0,0-2.79-3.5,7,7,0,0,0-4.07-1.22,10.5,10.5,0,0,0-6.81,2.54,16.83,16.83,0,0,0-4.83,6.94,25.52,25.52,0,0,0-1.75,9.51,10.62,10.62,0,0,0,2,6.86,6.62,6.62,0,0,0,5.4,2.43q5,0,9.27-5.54h.2l-.65,5h3.55l5.79-27.29ZM324.63,83a16,16,0,0,1-3.76,5.83,6.92,6.92,0,0,1-4.69,2.24A3.83,3.83,0,0,1,313,89.73a6.37,6.37,0,0,1-1.12-4.12A23,23,0,0,1,313.13,78a14.19,14.19,0,0,1,3.36-5.66,6.59,6.59,0,0,1,4.66-2.1,4.52,4.52,0,0,1,3.56,1.51,5.69,5.69,0,0,1,1.34,3.93A19.65,19.65,0,0,1,324.63,83Z"/><path class="cls-2" d="M262.13,25.22C261.57,25,205.42,0,131.78,0S.77,24.87.2,25.13a.32.32,0,0,0-.18.42.35.35,0,0,0,.42.19C1,25.55,56.93,6.82,131.75,6.82s129.58,18.82,130.13,19a.2.2,0,0,0,.11,0,.35.35,0,0,0,.31-.21.33.33,0,0,0-.17-.42"/><path class="cls-2" d="M261.88,127.24c-.55.18-55.31,19-130.13,19S1,127.52.44,127.33a.34.34,0,0,0-.42.19A.34.34,0,0,0,.2,128c.57.25,57.93,25.12,131.58,25.12s129.79-25,130.34-25.22a.34.34,0,0,0,.18-.43.33.33,0,0,0-.42-.18"/><path class="cls-1" d="M51.33,65.85a36.54,36.54,0,0,0-16.75-4.19A22.19,22.19,0,0,0,25.9,63c-2,.88-3,2.11-3,3.67S24,69.49,26.1,70.24a29.94,29.94,0,0,0,7.52,1.13q7.65.51,10.1.81,6.95.93,10.27,3.42a8.38,8.38,0,0,1,3.32,7.1,10.16,10.16,0,0,1-5.21,9.1Q46.9,95,37.14,95q-14.16,0-22-6.23l3.37-4.44a35.23,35.23,0,0,0,18.7,5.31q6.48,0,10.06-1.79,3.42-1.74,3.42-4.75,0-3.52-4.49-4.7-2.35-.61-12.67-1.27-9.15-.61-12.82-2.46a7.43,7.43,0,0,1-4.29-7.2q0-5.2,4.88-8.22t13.76-3q12,0,20,5.47Z"/><polygon class="cls-1" points="103.58 62.68 85.91 62.68 85.91 94.14 79.78 94.14 79.78 62.68 62.11 62.68 62.11 57.16 103.58 57.16 103.58 62.68"/><path class="cls-1" d="M132.79,80.35l-9.41-17.92-9.54,17.92Zm13.94,13.79H140l-4.26-8.27h-24.9l-4.26,8.27H99.9l19.56-37h7.71Z"/><path class="cls-1" d="M179,88.63a12.24,12.24,0,0,0,9.06-3.56,12.42,12.42,0,0,0,3.55-9.16,12.66,12.66,0,0,0-3.8-9.59,13.85,13.85,0,0,0-10-3.64H160.06V88.63Zm-1.68-31.46q9.64,0,15.29,5.13t5.65,13.76a16.78,16.78,0,0,1-6,13.17,20.06,20.06,0,0,1-13.79,4.91H153.93v-37Z"/><path class="cls-1" d="M233.86,80.35l-9.41-17.92-9.54,17.92ZM247.8,94.14h-6.7l-4.26-8.27h-24.9l-4.26,8.27H201l19.56-37h7.71Z"/></g></g></svg>
