<svg version="1.2" xmlns="http://www.w3.org/2000/svg" viewBox="0 0 780 140" width="780" height="140"><style>.a{fill:#4998e7}.b{fill:#49a5eb}.c{fill:#4a5fd6}.d{fill:#4b6dd9}.e{fill:#4a7bdd}.f{fill:#4989e3}.g{fill:#49b3f1}</style><path class="a" d="m450.2 42.4c5-8.9 16.6-13.9 26.5-15q20.9-2.3 39.3 6.9 0.8 0.3 0.4 1.1l-7.1 17c-0.1 0.4-0.5 0.5-0.8 0.3q-14.5-8.3-31-5.8-1.6 0.2-3.5 1.8c-7.4 6-0.1 10.9 5.7 12.3q10.1 2.4 20 5.2c31.2 8.7 24.7 43.9-3.5 49.7q-26.4 5.3-50.1-7c-0.5-0.3-0.8-1-0.5-1.6l7.4-16.8c0.1-0.3 0.6-0.5 0.9-0.3q16.3 10.6 35.8 7.5c4.3-0.7 8.1-4.9 5.5-9.2-2.5-4.2-18.2-7.2-23-8q-2.7-0.5-10.7-3.5c-14.4-5.4-18.6-21.9-11.3-34.6z"/><path class="b" d="m658.7 72.3c0 25.2-21.8 45.6-48.6 45.6-26.9 0-48.7-20.4-48.7-45.6 0-25.2 21.8-45.5 48.7-45.5 26.8 0 48.6 20.3 48.6 45.5zm-48.6 25.1c13.1 0 23.6-11.2 23.6-25.1 0-13.8-10.6-25-23.7-25-13 0-23.5 11.3-23.5 25.1 0 13.8 10.6 25 23.6 25z"/><path class="c" d="m32.7 115.1c0 0.4-0.3 0.8-0.8 0.8h-23.1c-0.5 0-0.8-0.4-0.8-0.8v-85.6c0-0.4 0.3-0.7 0.8-0.7h23.1c0.5 0 0.8 0.3 0.8 0.7z"/><path class="d" d="m147.2 115.5l-61.9-74.5c-0.2-0.3-0.3-0.6-0.3-1v-10.7q0-0.6 0.6-0.6h18.6c0.4 0 0.9 0.2 1.2 0.5q31.7 37.3 61.8 75.9c0.3 0.5 0.5 1 0.5 1.6v8.4q0 0.6-0.6 0.7l-18.9 0.2c-0.4 0-0.8-0.2-1-0.5z"/><path class="d" d="m167.7 29v43.7c0 0.3-0.4 0.5-0.6 0.2l-23.3-28.1q0 0 0-0.2v-15.6c0-0.2 0.1-0.3 0.3-0.3h23.3c0.2 0 0.3 0.2 0.3 0.3z"/><path class="e" d="m288.7 47.2c0 0.3-0.2 0.5-0.5 0.5h-68c-0.2 0-0.5-0.2-0.5-0.5v-18c0-0.3 0.3-0.5 0.5-0.5h68c0.3 0 0.5 0.2 0.5 0.5z"/><path class="f" d="m355.8 48.2h-25.4c-0.4 0-0.7-0.3-0.7-0.7v-18.1c0-0.4 0.3-0.7 0.7-0.7h76.7c0.3 0 0.6 0.3 0.6 0.7v18.1c0 0.4-0.3 0.7-0.6 0.7h-25.2c-0.4 0-0.6 0.3-0.6 0.7l-0.1 66.3c0 0.3-0.3 0.6-0.7 0.6l-23.4 0.2c-0.3 0-0.6-0.3-0.6-0.7v-66.4c0-0.4-0.3-0.7-0.7-0.7z"/><path class="g" d="m772 97.2v18c0 0.4-0.4 0.7-0.8 0.7l-64.5 0.1c-0.4 0-0.7-0.4-0.7-0.8v-85.6c0-0.4 0.3-0.7 0.7-0.7l23-0.3c0.4 0 0.8 0.4 0.8 0.8v66.3c0 0.4 0.3 0.8 0.7 0.8h40c0.4 0 0.8 0.3 0.8 0.7z"/><path class="e" d="m288.7 80.1c0 0.3-0.3 0.6-0.6 0.6h-67.7c-0.4 0-0.7-0.3-0.7-0.6v-17c0-0.4 0.3-0.6 0.7-0.6h67.7c0.3 0 0.6 0.2 0.6 0.6z"/><path class="d" d="m85 115.6v-44c0-0.3 0.4-0.4 0.6-0.2l23.3 29.7q0.1 0.1 0.1 0.2v14.3c0 0.2-0.2 0.4-0.4 0.4h-23.3c-0.2 0-0.3-0.2-0.3-0.4z"/><path class="e" d="m288.7 115.3c0 0.3-0.3 0.7-0.7 0.7h-67.6c-0.4 0-0.7-0.4-0.7-0.7v-17.7c0-0.3 0.3-0.6 0.7-0.6h67.6c0.4 0 0.7 0.3 0.7 0.6z"/></svg>