<svg version="1.2" xmlns="http://www.w3.org/2000/svg" viewBox="0 0 1440 900" width="1440" height="900"><style>.a{fill:none;stroke:#a3caf2;stroke-miterlimit:10;stroke-width:0}.b{fill:none;stroke:#a3d1f4;stroke-miterlimit:10;stroke-width:0}.c{fill:none;stroke:#a3aee9;stroke-miterlimit:10;stroke-width:0}.d{fill:none;stroke:#a4b5eb;stroke-miterlimit:10;stroke-width:0}.e{fill:none;stroke:#a3bced;stroke-miterlimit:10;stroke-width:0}.f{fill:none;stroke:#a3c3f0;stroke-miterlimit:10;stroke-width:0}.g{fill:none;stroke:#a3d8f7;stroke-miterlimit:10;stroke-width:0}.h{fill:#fcfcfc}.i{fill:#4998e7}.j{fill:#49a5eb}.k{fill:#4a5fd6}.l{fill:#4b6dd9}.m{fill:#4a7bdd}.n{fill:#4989e3}.o{fill:#49b3f1}</style><path class="a" d="m820.2 399.4c-7.3 12.7-3.1 29.2 11.3 34.6q8 3 10.7 3.5c4.8 0.8 20.5 3.8 23 8 2.6 4.3-1.2 8.5-5.5 9.2q-19.5 3.1-35.8-7.5c-0.3-0.2-0.8 0-0.9 0.3l-7.4 16.8c-0.3 0.6 0 1.3 0.5 1.6q23.7 12.3 50.1 7c28.2-5.8 34.7-41 3.5-49.7q-9.9-2.8-20-5.2c-5.8-1.4-13.1-6.3-5.7-12.3q1.9-1.6 3.5-1.8 16.5-2.5 31 5.8c0.3 0.2 0.7 0.1 0.8-0.3l7.1-17q0.4-0.8-0.4-1.1-18.4-9.2-39.3-6.9c-9.9 1.1-21.5 6.1-26.5 15z"/><path class="b" d="m1028.7 429.3c0-25.2-21.8-45.5-48.6-45.5-26.9 0-48.7 20.3-48.7 45.5 0 25.2 21.8 45.6 48.7 45.6 26.8 0 48.6-20.4 48.6-45.6z"/><path class="c" d="m402.7 386.5c0-0.4-0.3-0.7-0.8-0.7h-23.1c-0.5 0-0.8 0.3-0.8 0.7v85.6c0 0.4 0.3 0.8 0.8 0.8h23.1c0.5 0 0.8-0.4 0.8-0.8z"/><path class="d" d="m518.2 473l18.9-0.2q0.6-0.1 0.6-0.7v-8.4c0-0.6-0.2-1.1-0.5-1.6q-30.1-38.6-61.8-75.9c-0.3-0.3-0.8-0.5-1.2-0.5h-18.6q-0.6 0-0.6 0.6v10.7c0 0.4 0.1 0.7 0.3 1l61.9 74.5c0.2 0.3 0.6 0.5 1 0.5zm19.5-87c0-0.1-0.1-0.3-0.3-0.3h-23.3c-0.2 0-0.3 0.1-0.3 0.3v15.6q0 0.2 0 0.2l23.3 28.1c0.2 0.3 0.6 0.1 0.6-0.2z"/><path class="e" d="m658.7 386.2c0-0.3-0.2-0.5-0.5-0.5h-68c-0.2 0-0.5 0.2-0.5 0.5v18c0 0.3 0.3 0.5 0.5 0.5h68c0.3 0 0.5-0.2 0.5-0.5z"/><path class="f" d="m725.8 405.2c0.4 0 0.7 0.3 0.7 0.7v66.4c0 0.4 0.3 0.7 0.6 0.7l23.4-0.2c0.4 0 0.7-0.3 0.7-0.6l0.1-66.3c0-0.4 0.2-0.7 0.6-0.7h25.2c0.3 0 0.6-0.3 0.6-0.7v-18.1c0-0.4-0.3-0.7-0.6-0.7h-76.7c-0.4 0-0.7 0.3-0.7 0.7v18.1c0 0.4 0.3 0.7 0.7 0.7z"/><path class="g" d="m1142 454.2c0-0.4-0.4-0.7-0.8-0.7h-40c-0.4 0-0.7-0.4-0.7-0.8v-66.3c0-0.4-0.4-0.8-0.8-0.8l-23 0.3c-0.4 0-0.7 0.3-0.7 0.7v85.6c0 0.4 0.3 0.8 0.7 0.8l64.5-0.1c0.4 0 0.8-0.3 0.8-0.7z"/><path class="e" d="m658.7 420.1c0-0.4-0.3-0.6-0.6-0.6h-67.7c-0.4 0-0.7 0.2-0.7 0.6v17c0 0.3 0.3 0.6 0.7 0.6h67.7c0.3 0 0.6-0.3 0.6-0.6z"/><path class="d" d="m455 472.6c0 0.2 0.1 0.4 0.3 0.4h23.3c0.2 0 0.4-0.2 0.4-0.4v-14.3q0-0.1-0.1-0.2l-23.3-29.7c-0.2-0.2-0.6-0.1-0.6 0.2z"/><path class="e" d="m658.7 454.6c0-0.3-0.3-0.6-0.7-0.6h-67.6c-0.4 0-0.7 0.3-0.7 0.6v17.7c0 0.3 0.3 0.7 0.7 0.7h67.6c0.4 0 0.7-0.4 0.7-0.7z"/><path class="b" d="m980.1 454.4c13.1 0 23.6-11.2 23.6-25.1 0-13.8-10.6-25-23.7-25-13 0-23.5 11.3-23.5 25.1 0 13.8 10.6 25 23.6 25z"/><path class="h" d="m820.2 399.4c-7.3 12.7-3.1 29.2 11.3 34.6q8 3 10.7 3.5c4.8 0.8 20.5 3.8 23 8 2.6 4.3-1.2 8.5-5.5 9.2q-19.5 3.1-35.8-7.5c-0.3-0.2-0.8 0-0.9 0.3l-7.4 16.8c-0.3 0.6 0 1.3 0.5 1.6q23.7 12.3 50.1 7c28.2-5.8 34.7-41 3.5-49.7q-9.9-2.8-20-5.2c-5.8-1.4-13.1-6.3-5.7-12.3q1.9-1.6 3.5-1.8 16.5-2.5 31 5.8c0.3 0.2 0.7 0.1 0.8-0.3l7.1-17q0.4-0.8-0.4-1.1-18.4-9.2-39.3-6.9c-9.9 1.1-21.5 6.1-26.5 15z"/><path class="h" d="m1028.7 429.3c0-25.2-21.8-45.5-48.6-45.5-26.9 0-48.7 20.3-48.7 45.5 0 25.2 21.8 45.6 48.7 45.6 26.8 0 48.6-20.4 48.6-45.6z"/><path class="h" d="m402.7 386.5c0-0.4-0.3-0.7-0.8-0.7h-23.1c-0.5 0-0.8 0.3-0.8 0.7v85.6c0 0.4 0.3 0.8 0.8 0.8h23.1c0.5 0 0.8-0.4 0.8-0.8z"/><path class="h" d="m518.2 473l18.9-0.2q0.6-0.1 0.6-0.7v-8.4c0-0.6-0.2-1.1-0.5-1.6q-30.1-38.6-61.8-75.9c-0.3-0.3-0.8-0.5-1.2-0.5h-18.6q-0.6 0-0.6 0.6v10.7c0 0.4 0.1 0.7 0.3 1l61.9 74.5c0.2 0.3 0.6 0.5 1 0.5z"/><path class="h" d="m537.7 386c0-0.1-0.1-0.3-0.3-0.3h-23.3c-0.2 0-0.3 0.1-0.3 0.3v15.6q0 0.2 0 0.2l23.3 28.1c0.2 0.3 0.6 0.1 0.6-0.2z"/><path class="h" d="m658.7 386.2c0-0.3-0.2-0.5-0.5-0.5h-68c-0.2 0-0.5 0.2-0.5 0.5v18c0 0.3 0.3 0.5 0.5 0.5h68c0.3 0 0.5-0.2 0.5-0.5z"/><path class="h" d="m725.8 405.2c0.4 0 0.7 0.3 0.7 0.7v66.4c0 0.4 0.3 0.7 0.6 0.7l23.4-0.2c0.4 0 0.7-0.3 0.7-0.6l0.1-66.3c0-0.4 0.2-0.7 0.6-0.7h25.2c0.3 0 0.6-0.3 0.6-0.7v-18.1c0-0.4-0.3-0.7-0.6-0.7h-76.7c-0.4 0-0.7 0.3-0.7 0.7v18.1c0 0.4 0.3 0.7 0.7 0.7z"/><path class="h" d="m1142 454.2c0-0.4-0.4-0.7-0.8-0.7h-40c-0.4 0-0.7-0.4-0.7-0.8v-66.3c0-0.4-0.4-0.8-0.8-0.8l-23 0.3c-0.4 0-0.7 0.3-0.7 0.7v85.6c0 0.4 0.3 0.8 0.7 0.8l64.5-0.1c0.4 0 0.8-0.3 0.8-0.7z"/><path class="h" d="m658.7 420.1c0-0.4-0.3-0.6-0.6-0.6h-67.7c-0.4 0-0.7 0.2-0.7 0.6v17c0 0.3 0.3 0.6 0.7 0.6h67.7c0.3 0 0.6-0.3 0.6-0.6z"/><path class="h" d="m455 472.6c0 0.2 0.1 0.4 0.3 0.4h23.3c0.2 0 0.4-0.2 0.4-0.4v-14.3q0-0.1-0.1-0.2l-23.3-29.7c-0.2-0.2-0.6-0.1-0.6 0.2z"/><path class="h" d="m658.7 454.6c0-0.3-0.3-0.6-0.7-0.6h-67.6c-0.4 0-0.7 0.3-0.7 0.6v17.7c0 0.3 0.3 0.7 0.7 0.7h67.6c0.4 0 0.7-0.4 0.7-0.7z"/><path class="i" d="m820.2 399.4c5-8.9 16.6-13.9 26.5-15q20.9-2.3 39.3 6.9 0.8 0.3 0.4 1.1l-7.1 17c-0.1 0.4-0.5 0.5-0.8 0.3q-14.5-8.3-31-5.8-1.6 0.2-3.5 1.8c-7.4 6-0.1 10.9 5.7 12.3q10.1 2.4 20 5.2c31.2 8.7 24.7 43.9-3.5 49.7q-26.4 5.3-50.1-7c-0.5-0.3-0.8-1-0.5-1.6l7.4-16.8c0.1-0.3 0.6-0.5 0.9-0.3q16.3 10.6 35.8 7.5c4.3-0.7 8.1-4.9 5.5-9.2-2.5-4.2-18.2-7.2-23-8q-2.7-0.5-10.7-3.5c-14.4-5.4-18.6-21.9-11.3-34.6z"/><path class="j" d="m1028.7 429.3c0 25.2-21.8 45.6-48.6 45.6-26.9 0-48.7-20.4-48.7-45.6 0-25.2 21.8-45.5 48.7-45.5 26.8 0 48.6 20.3 48.6 45.5zm-48.6 25.1c13.1 0 23.6-11.2 23.6-25.1 0-13.8-10.6-25-23.7-25-13 0-23.5 11.3-23.5 25.1 0 13.8 10.6 25 23.6 25z"/><path class="k" d="m402.7 472.1c0 0.4-0.3 0.8-0.8 0.8h-23.1c-0.5 0-0.8-0.4-0.8-0.8v-85.6c0-0.4 0.3-0.7 0.8-0.7h23.1c0.5 0 0.8 0.3 0.8 0.7z"/><path class="l" d="m517.2 472.5l-61.9-74.5c-0.2-0.3-0.3-0.6-0.3-1v-10.7q0-0.6 0.6-0.6h18.6c0.4 0 0.9 0.2 1.2 0.5q31.7 37.3 61.8 75.9c0.3 0.5 0.5 1 0.5 1.6v8.4q0 0.6-0.6 0.7l-18.9 0.2c-0.4 0-0.8-0.2-1-0.5z"/><path class="l" d="m537.7 386v43.7c0 0.3-0.4 0.5-0.6 0.2l-23.3-28.1q0 0 0-0.2v-15.6c0-0.2 0.1-0.3 0.3-0.3h23.3c0.2 0 0.3 0.2 0.3 0.3z"/><path class="m" d="m658.7 404.2c0 0.3-0.2 0.5-0.5 0.5h-68c-0.2 0-0.5-0.2-0.5-0.5v-18c0-0.3 0.3-0.5 0.5-0.5h68c0.3 0 0.5 0.2 0.5 0.5z"/><path class="n" d="m725.8 405.2h-25.4c-0.4 0-0.7-0.3-0.7-0.7v-18.1c0-0.4 0.3-0.7 0.7-0.7h76.7c0.3 0 0.6 0.3 0.6 0.7v18.1c0 0.4-0.3 0.7-0.6 0.7h-25.2c-0.4 0-0.6 0.3-0.6 0.7l-0.1 66.3c0 0.3-0.3 0.6-0.7 0.6l-23.4 0.2c-0.3 0-0.6-0.3-0.6-0.7v-66.4c0-0.4-0.3-0.7-0.7-0.7z"/><path class="o" d="m1142 454.2v18c0 0.4-0.4 0.7-0.8 0.7l-64.5 0.1c-0.4 0-0.7-0.4-0.7-0.8v-85.6c0-0.4 0.3-0.7 0.7-0.7l23-0.3c0.4 0 0.8 0.4 0.8 0.8v66.3c0 0.4 0.3 0.8 0.7 0.8h40c0.4 0 0.8 0.3 0.8 0.7z"/><path class="h" d="m980.1 454.4c-13 0-23.6-11.2-23.6-25 0-13.8 10.5-25.1 23.5-25.1 13.1 0 23.7 11.2 23.7 25 0 13.9-10.5 25.1-23.6 25.1z"/><path class="m" d="m658.7 437.1c0 0.3-0.3 0.6-0.6 0.6h-67.7c-0.4 0-0.7-0.3-0.7-0.6v-17c0-0.4 0.3-0.6 0.7-0.6h67.7c0.3 0 0.6 0.2 0.6 0.6z"/><path class="l" d="m455 472.6v-44c0-0.3 0.4-0.4 0.6-0.2l23.3 29.7q0.1 0.1 0.1 0.2v14.3c0 0.2-0.2 0.4-0.4 0.4h-23.3c-0.2 0-0.3-0.2-0.3-0.4z"/><path class="m" d="m658.7 472.3c0 0.3-0.3 0.7-0.7 0.7h-67.6c-0.4 0-0.7-0.4-0.7-0.7v-17.7c0-0.3 0.3-0.6 0.7-0.6h67.6c0.4 0 0.7 0.3 0.7 0.6z"/></svg>