<?xml version="1.0" encoding="UTF-8"?><svg id="b" xmlns="http://www.w3.org/2000/svg" width="694" height="90" viewBox="0 0 694 90"><defs><style>.d{fill:#4998e7;}.e{fill:#49b3f1;}.f{fill:#4989e3;}.g{fill:#4a5fd6;}.h{fill:#4b6dd9;}.i{fill:#4a7bdd;}.j{fill:#49a5eb;}</style></defs><g id="c"><path class="d" d="M397.5,15.45c5.02-8.76,16.45-13.69,26.26-14.79,13.74-1.53,26.69.73,38.85,6.78.48.24.62.61.42,1.12l-7.05,16.82c-.13.31-.49.43-.78.27-9.6-5.48-19.83-7.4-30.7-5.76-1.05.16-2.2.75-3.47,1.79-7.29,5.95-.06,10.75,5.67,12.13,6.62,1.61,13.22,3.33,19.78,5.16,30.83,8.59,24.45,43.36-3.52,49.06-17.39,3.55-33.88,1.25-49.45-6.89-.55-.29-.79-.96-.54-1.53l7.31-16.63c.15-.35.58-.47.91-.27,10.78,6.98,22.58,9.44,35.42,7.4,4.22-.67,7.96-4.82,5.44-9.07-2.47-4.18-18-7.19-22.74-7.96-1.8-.29-5.35-1.43-10.64-3.43-14.2-5.36-18.4-21.61-11.17-34.2Z"/><path class="j" d="M593.75,45c0,24.86-21.52,45-48.07,45s-48.07-20.14-48.07-45S519.14,0,545.68,0s48.07,20.14,48.07,45ZM545.76,69.8c12.89-.02,23.32-11.11,23.3-24.78-.02-13.66-10.49-24.72-23.38-24.7-12.89.02-23.32,11.11-23.3,24.78.02,13.66,10.49,24.72,23.38,24.7Z"/><rect class="g" y="2" width="25" height="86" rx=".77" ry=".77"/><path class="h" d="M127.63,87.77L66.34,14.11c-.22-.26-.34-.59-.34-.93V2.62c0-.34.28-.62.62-.62h18.43c.44,0,.85.19,1.14.52,20.97,24.55,41.39,49.54,61.26,74.96.36.45.55,1.01.55,1.58v8.29c0,.42-.22.63-.64.64l-18.67.26c-.41,0-.79-.17-1.06-.48Z"/><path class="h" d="M147.67,2.02c.18,0,.33.15.33.33v43.15c0,.3-.39.43-.58.21l-23.35-27.76-.07-.2V2.33c.01-.18.16-.33.34-.33l23.34.02Z"/><path class="f" d="M313.35,21h-23.7c-.36,0-.65-.29-.65-.65V2.65c0-.36.29-.65.65-.65h75.7c.36,0,.65.29.65.65v17.7c0,.36-.29.65-.65.65h-25.68c-.37,0-.67.29-.67.65l-.1,66.7c0,.36-.29.64-.66.64l-23.58.17c-.36,0-.67-.3-.67-.65V21.65c0-.36-.29-.65-.65-.65Z"/><path class="e" d="M694,69.73v17.54c0,.41-.32.73-.73.73l-63.54.03c-.4,0-.73-.33-.73-.73V2.73c0-.4.32-.72.72-.73l21.52-.22c.41,0,.76.33.76.73l.03,65.75c0,.41.33.73.75.73h40.49c.4,0,.73.33.73.73Z"/><path class="h" d="M66.35,88c-.19,0-.35-.16-.35-.35v-43.43c0-.33.41-.46.62-.21l23.31,29.32.07.2v14.11c0,.19-.16.35-.35.35h-23.31Z"/><rect class="i" x="190" y="2" width="68" height="19" rx=".5" ry=".5"/><path class="i" d="M190.62,36h66.75c.34,0,.62.28.62.62v16.75c0,.34-.28.62-.62.62h-66.75c-.34,0-.62-.28-.62-.62v-16.75c0-.34.28-.62.62-.62Z"/><rect class="i" x="190" y="69" width="68" height="19" rx=".68" ry=".68"/></g></svg>